<?xml version="1.0" encoding="iso-8859-1"?>
<!-- Generator: Adobe Illustrator 19.0.0, SVG Export Plug-In . SVG Version: 6.00 Build 0)  -->
<svg version="1.1" id="Capa_1" xmlns="http://www.w3.org/2000/svg" xmlns:xlink="http://www.w3.org/1999/xlink" x="0px" y="0px"
	 viewBox="0 0 522.462 522.462" style="enable-background:new 0 0 522.462 522.462;" xml:space="preserve">
<g>
	<g>
		<path d="M391.844,261.231h-10.885v-10.885c0-6.008-4.876-10.885-10.885-10.885h-283c-5.987,0-10.885,4.876-10.885,10.885v217.692
			c0,29.998,24.425,54.423,54.423,54.423h195.923c30.02,0,54.423-24.425,54.423-54.423v-54.423h10.885
			c42.036,0,76.192-34.156,76.192-76.192C468.036,295.408,433.88,261.231,391.844,261.231z M391.844,391.846h-10.885V283h10.885
			c30.02,0,54.423,24.425,54.423,54.423C446.267,367.421,421.864,391.846,391.844,391.846z M304.767,217.692h43.538
			c4.136,0,7.946-2.351,9.774-6.095l33.155-67.572c21.922-3.135,38.401-22.662,41.753-50.831
			c4.245-35.702-13.628-79.545-62.957-91.474c-4.376-1.045-8.882,0.675-11.451,4.289c-2.569,3.657-2.634,8.49-0.196,12.256
			c11.472,17.546,4.55,27.908-7.706,43.386c-4.68,5.899-9.121,11.516-11.777,17.851c-5.116,12.082-5.377,24.839-0.762,35.832
			c2.025,4.833,5.094,9.165,8.795,13.04l-43.016,60.736l-2.721,3.897l-5.333,7.532c-2.329,3.331-2.656,7.685-0.762,11.276
			S300.696,217.692,304.767,217.692z M358.95,87.948c1.524-3.635,5.05-8.076,8.795-12.757c8.272-10.449,19.505-24.665,18.264-43.147
			c20.42,13.932,27.799,38.053,25.361,58.559c-1.785,14.89-9.731,32.262-26.297,32.262h-0.022l-18.569-6.161
			c-3.81-2.656-6.683-5.943-8.294-9.796C355.859,101.249,356.077,94.718,358.95,87.948z M70.922,88.644
			c-3.635-2.199-8.207-2.068-11.734,0.305c-3.505,2.416-5.312,6.618-4.615,10.798l10.144,60.78l52.725-43.996
			C117.443,116.531,70.922,88.644,70.922,88.644z M108.844,217.692h65.547c5.812,0,10.449-4.593,10.754-10.34
			c0.305,5.747,4.942,10.34,10.776,10.34h87.077c6.008,0,10.885-4.855,10.885-10.885v-10.885h-27.212
			c-5.987,0-10.885-4.855-10.885-10.885c0-6.008,4.898-10.885,10.885-10.885h27.212v-21.769h-54.423
			c-5.987,0-10.885-4.855-10.885-10.885c0-6.008,4.898-10.885,10.885-10.885h54.423v-21.769h-27.212
			c-5.987,0-10.885-4.855-10.885-10.885c0-6.008,4.898-10.885,10.885-10.885h27.212V65.308h-54.423
			c-5.987,0-10.885-4.855-10.885-10.885c0-6.008,4.898-10.885,10.885-10.885h54.423V10.885C293.882,4.876,289.006,0,282.998,0
			h-87.077c-5.987,0-10.885,4.876-10.885,10.885v194.878c-0.261-2.612-1.306-5.029-3.113-6.77l-48.262-67.615l-58.45,48.698
			l24.948,33.263C102.182,216.081,105.426,217.692,108.844,217.692z"/>
	</g>
</g>
<g>
</g>
<g>
</g>
<g>
</g>
<g>
</g>
<g>
</g>
<g>
</g>
<g>
</g>
<g>
</g>
<g>
</g>
<g>
</g>
<g>
</g>
<g>
</g>
<g>
</g>
<g>
</g>
<g>
</g>
</svg>
