<?xml version="1.0" encoding="iso-8859-1"?>
<!-- Generator: Adobe Illustrator 19.0.0, SVG Export Plug-In . SVG Version: 6.00 Build 0)  -->
<svg version="1.1" id="Capa_1" xmlns="http://www.w3.org/2000/svg" xmlns:xlink="http://www.w3.org/1999/xlink" x="0px" y="0px"
	 viewBox="0 0 522.462 522.462" style="enable-background:new 0 0 522.462 522.462;" xml:space="preserve">
<g>
	<g>
		<path d="M201.365,380.962c0-90.016,73.232-163.269,163.269-163.269c32.023,0,61.825,9.404,87.077,25.405V97.962
			c0-6.008-4.898-10.885-10.885-10.885H70.75c-18.003,0-32.654-14.651-32.654-32.654S52.747,21.769,70.75,21.769h370.077
			c5.987,0,10.885-4.876,10.885-10.885S446.813,0,440.827,0H70.75C40.73,0,16.327,24.425,16.327,54.423v413.615
			c0,29.998,24.403,54.423,54.423,54.423h212.751C234.498,494.292,201.365,441.458,201.365,380.962z M364.635,239.462
			c-78.021,0-141.5,63.479-141.5,141.5s63.479,141.5,141.5,141.5s141.5-63.479,141.5-141.5S442.656,239.462,364.635,239.462z
			 M415.879,399.552l-43.538,43.517l-3.548,2.373l-4.158,0.827l-4.158-0.827l-3.548-2.373l-43.517-43.517
			c-4.245-4.245-4.245-11.146,0-15.391c4.245-4.245,11.146-4.245,15.391,0l24.948,24.948v-82.571
			c0-6.008,4.876-10.885,10.885-10.885c5.987,0,10.885,4.876,10.885,10.885v82.571l24.948-24.948c4.245-4.245,11.146-4.245,15.391,0
			C420.103,388.407,420.124,395.307,415.879,399.552z M70.75,43.538c-6.008,0-10.885,4.876-10.885,10.885
			s4.876,10.885,10.885,10.885h348.308c5.987,0,10.885-4.876,10.885-10.885s-4.898-10.885-10.885-10.885H70.75z"/>
	</g>
</g>
<g>
</g>
<g>
</g>
<g>
</g>
<g>
</g>
<g>
</g>
<g>
</g>
<g>
</g>
<g>
</g>
<g>
</g>
<g>
</g>
<g>
</g>
<g>
</g>
<g>
</g>
<g>
</g>
<g>
</g>
</svg>
