<?xml version="1.0" encoding="UTF-8" standalone="no"?>
<!DOCTYPE svg PUBLIC "-//W3C//DTD SVG 1.1//EN" "http://www.w3.org/Graphics/SVG/1.1/DTD/svg11.dtd">
<svg version="1.1" xmlns="http://www.w3.org/2000/svg" xmlns:xlink="http://www.w3.org/1999/xlink" preserveAspectRatio="xMidYMid meet" viewBox="0 0 680 680" width="680" height="680"><defs><path d="M0 0L680 0L680 680L0 680L0 0Z" id="b1ryDIk1sd"></path><path d="M217.72 31.88C207.58 31.88 199.36 40.1 199.36 50.24C199.36 53.3 199.36 68.6 199.36 96.14C392.15 96.14 499.26 96.14 520.68 96.14C530.82 96.14 539.04 104.36 539.04 114.5C539.04 141.84 539.04 278.52 539.04 524.56C568.42 524.56 584.74 524.56 588 524.56C598.14 524.56 606.36 516.34 606.36 506.2C606.36 500.64 606.36 59.71 606.36 50.24C606.36 40.1 598.14 31.88 588 31.88C513.95 31.88 254.75 31.88 217.72 31.88Z" id="f6kvvlOTHm"></path><path d="M415.12 31.88C374.76 46.12 338.08 68.14 306.87 96.14C328.25 96.14 499.3 96.14 520.68 96.14C530.82 96.14 539.04 104.36 539.04 114.5C539.04 141.84 539.04 278.52 539.04 524.56C568.42 524.56 584.74 524.56 588 524.56C598.14 524.56 606.36 516.34 606.36 506.2C606.36 500.64 606.36 59.71 606.36 50.24C606.36 40.1 598.14 31.88 588 31.88C553.42 31.88 432.4 31.88 415.12 31.88Z" id="a8gEi2EDa"></path><path d="M151.65 94.89C141.51 94.89 133.29 103.11 133.29 113.25C133.29 116.31 133.29 131.61 133.29 159.15C327 159.15 434.61 159.15 456.13 159.15C466.27 159.15 474.49 167.37 474.49 177.51C474.49 204.85 474.49 341.54 474.49 587.57C502.95 587.57 518.76 587.57 521.93 587.57C532.07 587.57 540.29 579.35 540.29 569.21C540.29 523.62 540.29 158.85 540.29 113.25C540.29 103.11 532.07 94.89 521.93 94.89C447.87 94.89 188.68 94.89 151.65 94.89Z" id="do3oG1Po"></path><path d="M308.28 94.89C287.03 113.74 268.27 135.34 252.58 159.15C272.94 159.15 435.78 159.15 456.13 159.15C466.27 159.15 474.49 167.37 474.49 177.51C474.49 204.85 474.49 341.54 474.49 587.57C502.95 587.57 518.76 587.57 521.93 587.57C532.07 587.57 540.29 579.35 540.29 569.21C540.29 523.62 540.29 158.85 540.29 113.25C540.29 103.11 532.07 94.89 521.93 94.89C479.2 94.89 329.65 94.89 308.28 94.89Z" id="efgOtGLUI"></path><path d="M87.1 157.9C76.96 157.9 68.74 166.12 68.74 176.26C68.74 198.22 68.74 308 68.74 505.61C155.73 592.6 204.06 640.92 213.72 650.59C219.36 650.59 454.07 650.59 457.38 650.59C467.52 650.59 475.74 642.37 475.74 632.23C475.74 586.63 475.74 221.86 475.74 176.26C475.74 166.12 467.52 157.9 457.38 157.9C383.33 157.9 124.13 157.9 87.1 157.9Z" id="jhgbTxUd1"></path><path d="M253.4 157.9C130.3 342.77 226.99 596.13 443.72 650.59C445.08 650.59 456.02 650.59 457.38 650.59C467.52 650.59 475.75 642.37 475.75 632.23C475.75 586.63 475.75 221.86 475.75 176.26C475.74 166.12 467.52 157.9 457.38 157.9C416.59 157.9 273.8 157.9 253.4 157.9Z" id="e32sdZNWXz"></path><path d="M213.72 528.97C213.72 518.83 205.5 510.61 195.36 510.61C186.92 510.61 144.71 510.61 68.74 510.61L213.72 655.59C213.72 579.62 213.72 537.41 213.72 528.97Z" id="c3jtYTwpgm"></path><path d="M594.06 20.09L595.17 20.21L596.28 20.36L597.37 20.56L598.44 20.81L599.5 21.09L600.54 21.42L601.57 21.78L602.57 22.18L603.56 22.62L604.52 23.1L605.46 23.61L606.38 24.16L607.28 24.74L608.16 25.36L609 26.01L609.83 26.68L610.62 27.39L611.39 28.13L612.13 28.9L612.84 29.7L613.52 30.52L614.16 31.37L614.78 32.24L615.36 33.14L615.91 34.06L616.42 35L616.9 35.96L617.34 36.95L617.74 37.95L618.11 38.98L618.43 40.02L618.71 41.08L618.96 42.15L619.16 43.24L619.32 44.35L619.43 45.46L619.5 46.59L619.52 47.74L619.52 96.63L619.51 97.01L619.49 97.4L619.45 97.77L619.4 98.15L619.33 98.52L619.25 98.88L619.15 99.24L619.04 99.59L618.92 99.94L618.79 100.28L618.64 100.61L618.48 100.94L618.3 101.25L618.12 101.57L617.92 101.87L617.71 102.16L617.49 102.45L617.27 102.73L617.03 103L616.78 103.26L616.52 103.51L616.25 103.74L615.97 103.97L615.68 104.19L615.39 104.4L615.09 104.6L614.77 104.78L614.46 104.96L614.13 105.12L613.8 105.26L613.46 105.4L613.11 105.52L612.76 105.63L612.4 105.73L612.04 105.81L611.67 105.88L611.29 105.93L610.92 105.97L610.53 105.99L610.15 106L609.76 105.99L609.38 105.97L609 105.93L608.63 105.88L608.26 105.81L607.89 105.73L607.54 105.63L607.18 105.52L606.84 105.4L606.5 105.26L606.16 105.12L605.84 104.95L605.52 104.78L605.21 104.6L604.9 104.4L604.61 104.19L604.32 103.97L604.05 103.74L603.78 103.5L603.52 103.26L603.27 103L603.03 102.73L602.8 102.45L602.58 102.16L602.37 101.87L602.18 101.56L601.99 101.25L601.82 100.93L601.66 100.61L601.51 100.27L601.37 99.94L601.25 99.59L601.14 99.24L601.04 98.88L600.96 98.51L600.89 98.15L600.84 97.77L600.8 97.39L600.78 97.01L600.77 96.63L600.77 47.74L600.76 47.37L600.74 47L600.7 46.64L600.65 46.28L600.59 45.93L600.51 45.58L600.42 45.24L600.31 44.9L600.19 44.57L600.06 44.24L599.92 43.92L599.77 43.61L599.6 43.3L599.42 43.01L599.23 42.72L599.03 42.43L598.83 42.16L598.61 41.89L598.38 41.63L598.14 41.38L597.89 41.15L597.63 40.92L597.36 40.7L597.09 40.49L596.81 40.29L596.52 40.1L596.22 39.92L595.91 39.75L595.6 39.6L595.28 39.46L594.95 39.33L594.62 39.21L594.29 39.1L593.94 39.01L593.59 38.93L593.24 38.87L592.88 38.82L592.52 38.78L592.16 38.76L591.79 38.75L221.5 38.75L221.14 38.76L220.77 38.78L220.41 38.82L220.05 38.87L219.7 38.93L219.35 39.01L219.01 39.1L218.67 39.21L218.34 39.33L218.01 39.46L217.69 39.6L217.38 39.75L217.07 39.92L216.78 40.1L216.49 40.29L216.2 40.49L215.93 40.7L215.66 40.92L215.4 41.15L215.15 41.38L214.92 41.63L214.69 41.89L214.47 42.16L214.26 42.43L214.06 42.71L213.87 43.01L213.69 43.3L213.52 43.61L213.37 43.92L213.23 44.24L213.1 44.57L212.98 44.9L212.87 45.24L212.78 45.58L212.7 45.93L212.64 46.28L212.59 46.64L212.55 47L212.53 47.37L212.52 47.74L212.52 84.26L524.46 84.26L525.6 84.29L526.73 84.36L527.85 84.47L528.95 84.63L530.04 84.83L531.12 85.07L532.18 85.36L533.22 85.68L534.24 86.04L535.25 86.45L536.23 86.89L537.19 87.36L538.14 87.88L539.06 88.43L539.96 89.01L540.83 89.62L541.68 90.27L542.5 90.95L543.3 91.66L544.06 92.4L544.8 93.16L545.51 93.96L546.19 94.78L546.84 95.63L547.45 96.5L548.03 97.4L548.58 98.32L549.1 99.26L549.57 100.23L550.01 101.21L550.42 102.22L550.78 103.24L551.1 104.28L551.39 105.34L551.63 106.42L551.83 107.51L551.99 108.61L552.1 109.73L552.17 110.86L552.2 112L552.2 512.69L591.78 512.69L592.15 512.68L592.52 512.66L592.88 512.62L593.24 512.57L593.59 512.5L593.94 512.43L594.28 512.33L594.62 512.23L594.95 512.11L595.28 511.98L595.6 511.84L595.91 511.68L596.21 511.52L596.51 511.34L596.8 511.15L597.09 510.95L597.36 510.74L597.63 510.52L597.88 510.29L598.13 510.05L598.37 509.8L598.6 509.55L598.82 509.28L599.03 509.01L599.23 508.72L599.42 508.43L599.6 508.13L599.76 507.83L599.92 507.52L600.06 507.2L600.19 506.87L600.31 506.54L600.41 506.2L600.51 505.86L600.59 505.51L600.65 505.16L600.7 504.8L600.74 504.44L600.76 504.07L600.77 503.7L600.77 129.12L600.78 128.73L600.8 128.35L600.84 127.97L600.89 127.6L600.96 127.23L601.04 126.87L601.14 126.51L601.25 126.16L601.37 125.81L601.5 125.47L601.65 125.14L601.81 124.81L601.99 124.49L602.17 124.18L602.37 123.88L602.58 123.58L602.8 123.3L603.02 123.02L603.26 122.75L603.51 122.49L603.77 122.24L604.04 122L604.32 121.77L604.61 121.55L604.9 121.35L605.2 121.15L605.52 120.96L605.83 120.79L606.16 120.63L606.49 120.48L606.83 120.35L607.18 120.22L607.53 120.11L607.89 120.02L608.25 119.94L608.62 119.87L609 119.81L609.37 119.78L609.76 119.75L610.14 119.74L610.53 119.75L610.91 119.78L611.29 119.81L611.66 119.87L612.03 119.94L612.4 120.02L612.75 120.11L613.11 120.22L613.45 120.35L613.79 120.48L614.13 120.63L614.45 120.79L614.77 120.96L615.08 121.15L615.39 121.35L615.68 121.55L615.97 121.77L616.24 122L616.51 122.24L616.77 122.49L617.02 122.75L617.26 123.02L617.49 123.3L617.71 123.58L617.92 123.88L618.11 124.18L618.3 124.49L618.47 124.81L618.63 125.14L618.78 125.47L618.92 125.81L619.04 126.16L619.15 126.51L619.25 126.87L619.33 127.23L619.4 127.6L619.45 127.97L619.49 128.35L619.51 128.73L619.52 129.12L619.52 503.7L619.49 504.84L619.43 505.97L619.31 507.09L619.15 508.19L618.95 509.28L618.71 510.36L618.43 511.42L618.1 512.46L617.74 513.48L617.33 514.49L616.89 515.47L616.42 516.44L615.9 517.38L615.36 518.3L614.77 519.2L614.16 520.07L613.51 520.92L612.83 521.74L612.12 522.54L611.39 523.3L610.62 524.04L609.82 524.75L609 525.43L608.15 526.08L607.28 526.69L606.38 527.28L605.46 527.82L604.52 528.34L603.55 528.81L602.57 529.25L601.56 529.66L600.54 530.02L599.5 530.34L598.44 530.63L597.37 530.87L596.28 531.07L595.17 531.23L594.05 531.34L592.92 531.41L591.78 531.44L552.2 531.44L552.2 567.97L552.17 569.11L552.1 570.24L551.99 571.35L551.83 572.46L551.63 573.55L551.39 574.62L551.1 575.68L550.78 576.72L550.42 577.75L550.01 578.75L549.57 579.74L549.1 580.7L548.58 581.64L548.03 582.56L547.45 583.46L546.84 584.34L546.19 585.18L545.51 586.01L544.8 586.8L544.06 587.57L543.3 588.31L542.5 589.02L541.68 589.7L540.83 590.34L539.96 590.96L539.06 591.54L538.14 592.09L537.19 592.6L536.23 593.08L535.25 593.52L534.24 593.92L533.22 594.29L532.18 594.61L531.12 594.89L530.04 595.14L528.95 595.34L527.85 595.5L526.73 595.61L525.6 595.68L524.46 595.7L486.4 595.7L486.4 632.23L486.38 633.37L486.31 634.5L486.2 635.62L486.04 636.72L485.84 637.81L485.6 638.89L485.31 639.94L484.99 640.99L484.62 642.01L484.22 643.01L483.78 644L483.3 644.96L482.79 645.91L482.24 646.83L481.66 647.72L481.04 648.6L480.4 649.45L479.72 650.27L479.01 651.06L478.27 651.83L477.5 652.57L476.71 653.28L475.89 653.96L475.04 654.61L474.16 655.22L473.27 655.8L472.35 656.35L471.4 656.86L470.44 657.34L469.45 657.78L468.45 658.18L467.42 658.55L466.38 658.87L465.32 659.16L464.25 659.4L463.16 659.6L462.06 659.76L460.94 659.87L459.81 659.94L458.67 659.96L302.62 659.96L302.24 659.96L301.85 659.93L301.48 659.89L301.1 659.84L300.73 659.77L300.37 659.69L300.01 659.6L299.66 659.49L299.31 659.36L298.97 659.23L298.64 659.08L298.31 658.92L298 658.74L297.68 658.56L297.38 658.36L297.09 658.16L296.8 657.94L296.52 657.71L296.25 657.47L295.99 657.22L295.74 656.96L295.5 656.69L295.27 656.41L295.06 656.13L294.85 655.83L294.65 655.53L294.47 655.22L294.29 654.9L294.13 654.57L293.98 654.24L293.85 653.9L293.73 653.55L293.62 653.2L293.52 652.84L293.44 652.48L293.37 652.11L293.32 651.74L293.28 651.36L293.26 650.98L293.25 650.59L293.26 650.2L293.28 649.82L293.32 649.44L293.37 649.07L293.44 648.7L293.52 648.34L293.62 647.98L293.73 647.63L293.85 647.28L293.98 646.94L294.13 646.61L294.29 646.28L294.47 645.96L294.65 645.65L294.85 645.35L295.06 645.05L295.27 644.77L295.5 644.49L295.74 644.22L295.99 643.96L296.25 643.71L296.52 643.47L296.8 643.24L297.09 643.02L297.38 642.81L297.68 642.62L298 642.43L298.31 642.26L298.64 642.1L298.97 641.95L299.31 641.81L299.66 641.69L300.01 641.58L300.37 641.49L300.73 641.4L301.1 641.34L301.48 641.28L301.85 641.25L302.24 641.22L302.62 641.21L458.67 641.21L459.04 641.21L459.4 641.18L459.76 641.15L460.12 641.1L460.48 641.03L460.82 640.95L461.17 640.86L461.5 640.76L461.84 640.64L462.16 640.51L462.48 640.36L462.79 640.21L463.1 640.04L463.4 639.87L463.69 639.68L463.97 639.48L464.24 639.27L464.51 639.05L464.77 638.82L465.02 638.58L465.26 638.33L465.49 638.07L465.71 637.81L465.92 637.53L466.12 637.25L466.3 636.96L466.48 636.66L466.65 636.35L466.8 636.04L466.95 635.72L467.08 635.4L467.19 635.07L467.3 634.73L467.39 634.39L467.47 634.04L467.54 633.68L467.59 633.33L467.62 632.96L467.65 632.6L467.65 632.23L467.65 176.26L467.65 175.89L467.62 175.53L467.59 175.17L467.54 174.81L467.47 174.46L467.39 174.11L467.3 173.76L467.19 173.43L467.08 173.1L466.95 172.77L466.8 172.45L466.65 172.14L466.48 171.83L466.3 171.53L466.12 171.24L465.92 170.96L465.71 170.69L465.49 170.42L465.26 170.16L465.02 169.91L464.77 169.67L464.51 169.44L464.25 169.22L463.97 169.01L463.69 168.82L463.4 168.63L463.1 168.45L462.79 168.28L462.48 168.13L462.16 167.99L461.84 167.86L461.5 167.74L461.17 167.63L460.82 167.54L460.48 167.46L460.12 167.4L459.76 167.35L459.4 167.31L459.04 167.29L458.67 167.28L88.39 167.28L88.02 167.29L87.65 167.31L87.29 167.35L86.93 167.4L86.58 167.46L86.23 167.54L85.89 167.63L85.55 167.74L85.22 167.86L84.89 167.99L84.57 168.13L84.26 168.28L83.96 168.45L83.66 168.63L83.37 168.82L83.08 169.01L82.81 169.22L82.54 169.44L82.29 169.67L82.04 169.91L81.8 170.16L81.57 170.42L81.35 170.69L81.14 170.96L80.94 171.24L80.75 171.53L80.57 171.83L80.41 172.14L80.25 172.45L80.11 172.77L79.98 173.09L79.86 173.43L79.76 173.76L79.66 174.11L79.58 174.45L79.52 174.81L79.47 175.17L79.43 175.53L79.41 175.89L79.4 176.26L79.4 496.24L196.65 496.24L197.79 496.26L198.92 496.33L200.04 496.44L201.14 496.6L202.23 496.8L203.3 497.04L204.36 497.33L205.4 497.65L206.43 498.02L207.43 498.42L208.42 498.86L209.38 499.34L210.32 499.85L211.25 500.4L212.14 500.98L213.02 501.59L213.86 502.24L214.69 502.92L215.48 503.63L216.25 504.37L216.99 505.14L217.7 505.93L218.38 506.75L219.02 507.6L219.64 508.47L220.22 509.37L220.77 510.29L221.28 511.24L221.76 512.2L222.2 513.19L222.6 514.19L222.97 515.21L223.29 516.26L223.57 517.31L223.82 518.39L224.02 519.48L224.18 520.58L224.29 521.7L224.36 522.83L224.38 523.97L224.38 641.21L269.29 641.21L269.68 641.22L270.06 641.25L270.44 641.28L270.81 641.34L271.18 641.4L271.54 641.49L271.9 641.58L272.25 641.69L272.6 641.81L272.94 641.95L273.27 642.1L273.6 642.26L273.92 642.43L274.23 642.62L274.53 642.81L274.83 643.02L275.11 643.24L275.39 643.47L275.66 643.71L275.92 643.96L276.17 644.22L276.41 644.49L276.64 644.77L276.85 645.05L277.06 645.35L277.26 645.65L277.44 645.96L277.62 646.28L277.78 646.61L277.93 646.94L278.06 647.28L278.19 647.63L278.3 647.98L278.39 648.34L278.47 648.7L278.54 649.07L278.59 649.44L278.63 649.82L278.66 650.2L278.66 650.59L278.66 650.98L278.63 651.36L278.59 651.74L278.54 652.11L278.47 652.48L278.39 652.84L278.3 653.2L278.19 653.55L278.06 653.9L277.93 654.24L277.78 654.57L277.62 654.9L277.44 655.22L277.26 655.53L277.06 655.83L276.85 656.13L276.64 656.41L276.41 656.69L276.17 656.96L275.92 657.22L275.66 657.47L275.39 657.71L275.11 657.94L274.83 658.16L274.53 658.36L274.23 658.56L273.92 658.74L273.6 658.92L273.27 659.08L272.94 659.23L272.6 659.36L272.25 659.49L271.9 659.6L271.54 659.69L271.18 659.77L270.81 659.84L270.44 659.89L270.06 659.93L269.68 659.96L269.29 659.96L215.01 659.96L214.62 659.97L214.26 659.99L213.92 660L213.59 659.99L213.23 659.93L212.85 659.83L212.41 659.65L211.92 659.39L211.34 659.02L210.66 658.54L209.87 657.93L208.95 657.16L207.88 656.24L206.65 655.13L205.23 653.83L203.62 652.32L201.8 650.58L199.75 648.6L197.46 646.37L194.9 643.86L192.06 641.06L188.93 637.95L185.49 634.53L181.72 630.77L177.6 626.66L173.13 622.19L168.27 617.33L163.03 612.07L157.37 606.4L151.29 600.3L144.76 593.75L137.78 586.74L130.32 579.26L122.37 571.29L113.91 562.81L104.92 553.8L95.39 544.26L85.31 534.16L74.65 523.49L63.4 512.24L63.11 511.97L62.84 511.73L62.59 511.5L62.36 511.22L62.14 510.87L61.95 510.41L61.76 509.81L61.59 509.02L61.44 508.02L61.3 506.77L61.17 505.23L61.06 503.37L60.96 501.15L60.87 498.54L60.79 495.5L60.72 492L60.67 487.99L60.62 483.45L60.58 478.34L60.54 472.62L60.52 466.26L60.5 459.23L60.49 451.48L60.48 442.98L60.48 433.7L60.48 423.6L60.49 412.64L60.5 400.8L60.51 388.02L60.52 374.29L60.54 359.56L60.56 343.8L60.57 326.97L60.59 309.03L60.61 289.96L60.62 269.71L60.63 248.25L60.64 225.55L60.65 201.56L60.65 176.26L60.67 175.12L60.74 173.99L60.86 172.87L61.02 171.77L61.22 170.68L61.46 169.6L61.74 168.55L62.07 167.5L62.43 166.48L62.83 165.48L63.27 164.49L63.75 163.53L64.26 162.58L64.81 161.66L65.39 160.77L66.01 159.89L66.66 159.04L67.34 158.22L68.05 157.43L68.78 156.66L69.55 155.92L70.35 155.21L71.17 154.53L72.02 153.88L72.89 153.27L73.79 152.69L74.71 152.14L75.65 151.63L76.62 151.15L77.6 150.71L78.61 150.31L79.63 149.94L80.67 149.62L81.73 149.33L82.8 149.09L83.89 148.89L85 148.73L86.12 148.62L87.25 148.55L88.39 148.53L126.45 148.53L126.45 112L126.47 110.86L126.54 109.73L126.65 108.61L126.81 107.51L127.01 106.42L127.25 105.34L127.54 104.28L127.86 103.24L128.23 102.22L128.63 101.21L129.07 100.23L129.55 99.26L130.06 98.32L130.61 97.4L131.19 96.5L131.8 95.63L132.45 94.78L133.13 93.96L133.84 93.16L134.58 92.4L135.35 91.66L136.14 90.95L136.96 90.27L137.81 89.62L138.69 89.01L139.58 88.42L140.5 87.88L141.45 87.36L142.41 86.89L143.4 86.45L144.4 86.04L145.43 85.68L146.47 85.35L147.53 85.07L148.6 84.83L149.69 84.63L150.79 84.47L151.91 84.35L153.04 84.29L154.18 84.26L193.77 84.26L193.77 47.74L193.79 46.59L193.86 45.46L193.98 44.35L194.13 43.24L194.33 42.15L194.58 41.08L194.86 40.02L195.19 38.98L195.55 37.95L195.95 36.95L196.39 35.96L196.87 35L197.38 34.06L197.93 33.14L198.51 32.24L199.13 31.37L199.78 30.52L200.45 29.7L201.16 28.9L201.9 28.13L202.67 27.39L203.47 26.68L204.29 26.01L205.14 25.36L206.01 24.74L206.91 24.16L207.83 23.61L208.77 23.1L209.73 22.62L210.72 22.18L211.72 21.78L212.75 21.42L213.79 21.09L214.85 20.81L215.92 20.56L217.01 20.36L218.12 20.21L219.23 20.09L220.36 20.02L221.5 20L591.79 20L592.93 20.02L594.06 20.09ZM93.84 516.16L95.31 517.63L97.05 519.37L99.06 521.38L101.3 523.63L103.78 526.1L106.46 528.79L109.34 531.67L112.4 534.72L115.62 537.94L118.98 541.3L122.47 544.79L126.07 548.4L129.77 552.1L133.55 555.87L137.39 559.71L141.28 563.6L145.19 567.52L149.12 571.44L153.05 575.37L156.95 579.28L160.83 583.15L164.64 586.97L168.39 590.72L172.06 594.38L175.62 597.94L179.07 601.39L182.38 604.7L185.54 607.86L188.53 610.85L191.34 613.66L193.94 616.27L196.34 618.66L203.41 625.73L205.22 627.54L205.63 627.96L205.63 523.97L205.63 523.72L205.61 523.48L205.58 523.23L205.54 522.99L205.49 522.75L205.43 522.51L205.36 522.26L205.27 522.03L205.18 521.79L205.07 521.55L204.95 521.32L204.82 521.08L204.68 520.85L204.53 520.62L204.37 520.38L204.19 520.15L204.01 519.93L203.81 519.7L203.6 519.47L203.39 519.25L203.16 519.02L202.91 518.8L202.66 518.58L202.4 518.36L202.12 518.14L201.84 517.92L201.54 517.7L201.23 517.49L200.91 517.27L200.58 517.06L200.24 516.85L199.88 516.63L199.52 516.42L199.14 516.21L198.75 516.01L198.35 515.8L197.94 515.59L197.52 515.39L197.09 515.19L196.65 514.98L92.66 514.98L93.84 516.16ZM516.29 103.01L511.36 103.01L505.43 103.01L498.58 103.01L490.84 103.01L482.3 103.01L473.01 103.01L463.04 103.01L452.44 103.01L441.29 103.01L429.63 103.01L417.54 103.01L405.07 103.01L392.29 103.01L379.26 103.01L366.05 103.01L352.71 103.01L339.31 103.01L325.91 103.01L312.57 103.01L299.36 103.01L286.33 103.01L273.55 103.01L261.09 103.01L249 103.01L237.34 103.01L226.18 103.01L215.59 103.01L205.61 103.01L196.33 103.01L187.79 103.01L180.06 103.01L173.2 103.01L167.28 103.01L162.35 103.01L158.49 103.01L155.74 103.01L154.18 103.01L153.81 103.02L153.45 103.04L153.08 103.08L152.73 103.13L152.37 103.2L152.03 103.28L151.68 103.37L151.35 103.47L151.01 103.59L150.69 103.72L150.37 103.86L150.06 104.02L149.75 104.18L149.45 104.36L149.16 104.55L148.88 104.75L148.6 104.96L148.34 105.18L148.08 105.41L147.83 105.65L147.59 105.9L147.36 106.16L147.14 106.42L146.93 106.7L146.73 106.98L146.54 107.27L146.37 107.57L146.2 107.87L146.05 108.19L145.9 108.51L145.77 108.83L145.66 109.16L145.55 109.5L145.46 109.84L145.38 110.19L145.31 110.54L145.26 110.9L145.23 111.26L145.2 111.63L145.2 112L145.2 148.53L458.67 148.53L459.81 148.55L460.94 148.62L462.06 148.73L463.16 148.89L464.25 149.09L465.33 149.33L466.39 149.62L467.43 149.94L468.45 150.31L469.46 150.71L470.44 151.15L471.41 151.63L472.35 152.14L473.27 152.69L474.17 153.27L475.04 153.89L475.89 154.53L476.71 155.21L477.51 155.92L478.27 156.66L479.01 157.43L479.72 158.22L480.4 159.05L481.05 159.89L481.66 160.77L482.24 161.66L482.79 162.58L483.31 163.53L483.78 164.49L484.22 165.48L484.63 166.48L484.99 167.51L485.31 168.55L485.6 169.61L485.84 170.68L486.04 171.77L486.2 172.87L486.31 173.99L486.38 175.12L486.41 176.26L486.41 576.95L524.46 576.95L524.83 576.94L525.2 576.92L525.56 576.88L525.92 576.83L526.27 576.77L526.62 576.69L526.96 576.6L527.3 576.49L527.63 576.37L527.96 576.24L528.28 576.1L528.59 575.94L528.89 575.78L529.19 575.6L529.48 575.41L529.77 575.21L530.04 575L530.31 574.78L530.56 574.55L530.81 574.31L531.05 574.07L531.28 573.81L531.5 573.54L531.71 573.27L531.91 572.98L532.1 572.69L532.28 572.39L532.44 572.09L532.6 571.78L532.74 571.46L532.87 571.13L532.99 570.8L533.09 570.46L533.19 570.12L533.27 569.77L533.33 569.42L533.38 569.06L533.42 568.7L533.44 568.33L533.45 567.96L533.45 112L533.44 111.63L533.42 111.26L533.38 110.9L533.33 110.54L533.27 110.19L533.19 109.84L533.09 109.5L532.99 109.16L532.87 108.83L532.74 108.5L532.6 108.19L532.44 107.87L532.28 107.57L532.1 107.27L531.91 106.98L531.71 106.7L531.5 106.42L531.28 106.15L531.05 105.9L530.81 105.65L530.56 105.41L530.31 105.18L530.04 104.96L529.77 104.75L529.48 104.55L529.19 104.36L528.89 104.18L528.59 104.02L528.28 103.86L527.96 103.72L527.63 103.59L527.3 103.47L526.96 103.37L526.62 103.27L526.27 103.2L525.92 103.13L525.56 103.08L525.2 103.04L524.83 103.02L524.46 103.01L520.15 103.01L516.29 103.01Z" id="cAW5dzmQL"></path></defs><g><g><g><use xlink:href="#b1ryDIk1sd" opacity="1" fill="#ffffff" fill-opacity="1"></use></g><g><use xlink:href="#f6kvvlOTHm" opacity="1" fill="#31b89a" fill-opacity="1"></use><g><use xlink:href="#f6kvvlOTHm" opacity="1" fill-opacity="0" stroke="#000000" stroke-width="1" stroke-opacity="0"></use></g></g><g><use xlink:href="#a8gEi2EDa" opacity="1" fill="#3bd4b2" fill-opacity="1"></use><g><use xlink:href="#a8gEi2EDa" opacity="1" fill-opacity="0" stroke="#000000" stroke-width="1" stroke-opacity="0"></use></g></g><g><use xlink:href="#do3oG1Po" opacity="1" fill="#eab931" fill-opacity="1"></use><g><use xlink:href="#do3oG1Po" opacity="1" fill-opacity="0" stroke="#000000" stroke-width="1" stroke-opacity="0"></use></g></g><g><use xlink:href="#efgOtGLUI" opacity="1" fill="#fed460" fill-opacity="1"></use><g><use xlink:href="#efgOtGLUI" opacity="1" fill-opacity="0" stroke="#000000" stroke-width="1" stroke-opacity="0"></use></g></g><g><use xlink:href="#jhgbTxUd1" opacity="1" fill="#e7eced" fill-opacity="1"></use><g><use xlink:href="#jhgbTxUd1" opacity="1" fill-opacity="0" stroke="#000000" stroke-width="1" stroke-opacity="0"></use></g></g><g><use xlink:href="#e32sdZNWXz" opacity="1" fill="#f1f8f9" fill-opacity="1"></use><g><use xlink:href="#e32sdZNWXz" opacity="1" fill-opacity="0" stroke="#000000" stroke-width="1" stroke-opacity="0"></use></g></g><g><use xlink:href="#c3jtYTwpgm" opacity="1" fill="#b9bfc0" fill-opacity="1"></use><g><use xlink:href="#c3jtYTwpgm" opacity="1" fill-opacity="0" stroke="#000000" stroke-width="1" stroke-opacity="0"></use></g></g><g><use xlink:href="#cAW5dzmQL" opacity="1" fill="#231f20" fill-opacity="1"></use><g><use xlink:href="#cAW5dzmQL" opacity="1" fill-opacity="0" stroke="#000000" stroke-width="1" stroke-opacity="0"></use></g></g></g></g></svg>