<?xml version="1.0" encoding="UTF-8" standalone="no"?>
<!DOCTYPE svg PUBLIC "-//W3C//DTD SVG 1.1//EN" "http://www.w3.org/Graphics/SVG/1.1/DTD/svg11.dtd">
<svg version="1.1" xmlns="http://www.w3.org/2000/svg" xmlns:xlink="http://www.w3.org/1999/xlink" preserveAspectRatio="xMidYMid meet" viewBox="0 0 680 680" width="680" height="680"><defs><path d="M-2 0L678 0L678 680L-2 680L-2 0Z" id="a20oSHYlG7"></path><path d="M28.41 340.01L38.55 403.77L66.09 480.58L111.01 548.7L166.67 595.07L240 629.85L309.57 645.8L361.74 632.75L379.99 584.93L354.49 538.55L332.75 492.17L328.41 457.39L354.49 438.55L421.16 438.55L499.42 457.39L587.83 442.9L644.35 384.93L644.35 306.67L625.51 225.51L579.99 148.7L513.32 89.28L429.86 47.25L340 31.3L244.35 47.25L157.39 89.28L86.38 171.88L38.55 286.68L28.41 340.01Z" id="a9UniiR4p"></path><path d="M198.79 153.57L201.48 153.84L204.13 154.22L206.75 154.7L209.34 155.29L211.88 155.97L214.39 156.75L216.85 157.62L219.26 158.59L221.63 159.65L223.95 160.8L226.21 162.03L228.43 163.35L230.58 164.74L232.68 166.22L234.72 167.78L236.7 169.41L238.61 171.11L240.45 172.89L242.23 174.73L243.93 176.65L245.56 178.62L247.12 180.66L248.6 182.76L250 184.92L251.31 187.13L252.55 189.4L253.69 191.71L254.75 194.08L255.72 196.5L256.59 198.96L257.37 201.46L258.06 204.01L258.64 206.59L259.12 209.21L259.5 211.86L259.77 214.55L259.94 217.27L260 220.01L259.94 222.76L259.77 225.47L259.5 228.16L259.12 230.81L258.64 233.43L258.05 236.02L257.37 238.56L256.59 241.06L255.72 243.53L254.75 245.94L253.69 248.31L252.54 250.63L251.31 252.89L249.99 255.11L248.59 257.26L247.11 259.36L245.56 261.4L243.92 263.38L242.22 265.29L240.44 267.13L238.6 268.91L236.69 270.61L234.71 272.24L232.67 273.8L230.57 275.28L228.42 276.68L226.2 277.99L223.94 279.23L221.62 280.37L219.25 281.43L216.83 282.4L214.37 283.27L211.87 284.05L209.33 284.74L206.75 285.32L204.13 285.8L201.47 286.18L198.79 286.45L196.07 286.62L193.33 286.68L190.59 286.62L187.87 286.45L185.18 286.18L182.53 285.8L179.91 285.32L177.33 284.74L174.78 284.05L172.28 283.27L169.82 282.4L167.4 281.43L165.03 280.37L162.72 279.23L160.45 277.99L158.24 276.68L156.08 275.28L153.98 273.8L151.94 272.24L149.97 270.61L148.05 268.91L146.21 267.13L144.43 265.29L142.73 263.38L141.1 261.4L139.54 259.36L138.06 257.26L136.67 255.11L135.35 252.89L134.12 250.63L132.97 248.31L131.91 245.94L130.95 243.53L130.07 241.06L129.29 238.56L128.61 236.02L128.02 233.43L127.54 230.81L127.16 228.16L126.89 225.47L126.72 222.76L126.67 220.01L126.72 217.27L126.89 214.55L127.16 211.86L127.54 209.21L128.02 206.59L128.61 204.01L129.29 201.46L130.07 198.96L130.95 196.5L131.91 194.08L132.97 191.71L134.12 189.4L135.35 187.13L136.67 184.92L138.06 182.76L139.54 180.66L141.1 178.62L142.73 176.65L144.43 174.73L146.21 172.89L148.05 171.11L149.97 169.41L151.94 167.78L153.98 166.22L156.08 164.74L158.24 163.35L160.45 162.03L162.72 160.8L165.03 159.65L167.4 158.59L169.82 157.62L172.28 156.75L174.78 155.97L177.33 155.29L179.91 154.7L182.53 154.22L185.18 153.84L187.87 153.57L190.59 153.4L193.33 153.35L196.08 153.4L198.79 153.57ZM190.05 180.15L188.44 180.31L186.85 180.54L185.27 180.83L183.72 181.18L182.2 181.59L180.69 182.06L179.22 182.58L177.77 183.16L176.35 183.8L174.95 184.49L173.59 185.23L172.27 186.02L170.97 186.85L169.71 187.74L168.49 188.68L167.31 189.65L166.16 190.68L165.05 191.74L163.99 192.85L162.97 194L161.99 195.18L161.05 196.41L160.17 197.67L159.33 198.96L158.54 200.29L157.8 201.65L157.11 203.04L156.48 204.46L155.9 205.91L155.37 207.38L154.91 208.89L154.5 210.41L154.15 211.96L153.86 213.53L153.63 215.13L153.47 216.74L153.37 218.37L153.33 220.01L153.37 221.66L153.47 223.29L153.63 224.9L153.86 226.49L154.15 228.06L154.5 229.61L154.91 231.14L155.37 232.64L155.9 234.12L156.48 235.57L157.11 236.99L157.8 238.38L158.54 239.74L159.33 241.07L160.17 242.36L161.05 243.62L161.99 244.84L162.97 246.03L163.99 247.18L165.05 248.28L166.16 249.35L167.31 250.37L168.49 251.35L169.71 252.28L170.97 253.17L172.27 254.01L173.59 254.8L174.95 255.54L176.35 256.23L177.77 256.86L179.22 257.44L180.69 257.97L182.2 258.44L183.72 258.85L185.27 259.2L186.85 259.49L188.44 259.71L190.05 259.88L191.68 259.98L193.33 260.01L194.98 259.98L196.61 259.88L198.22 259.71L199.82 259.49L201.39 259.2L202.94 258.85L204.47 258.44L205.97 257.97L207.45 257.44L208.9 256.86L210.32 256.23L211.71 255.54L213.07 254.8L214.4 254.01L215.69 253.17L216.95 252.28L218.17 251.35L219.36 250.37L220.5 249.35L221.61 248.28L222.68 247.18L223.7 246.03L224.68 244.84L225.61 243.62L226.5 242.36L227.34 241.07L228.12 239.74L228.86 238.38L229.55 236.99L230.19 235.57L230.77 234.12L231.29 232.64L231.76 231.14L232.17 229.61L232.52 228.06L232.81 226.49L233.03 224.9L233.2 223.29L233.3 221.66L233.33 220.01L233.3 218.37L233.2 216.74L233.03 215.13L232.81 213.53L232.52 211.96L232.17 210.41L231.76 208.89L231.29 207.38L230.76 205.91L230.18 204.46L229.55 203.04L228.86 201.65L228.12 200.29L227.33 198.96L226.49 197.67L225.6 196.41L224.67 195.18L223.69 194L222.67 192.85L221.6 191.74L220.49 190.68L219.35 189.65L218.16 188.68L216.94 187.74L215.68 186.85L214.38 186.02L213.06 185.23L211.7 184.49L210.31 183.8L208.89 183.16L207.44 182.58L205.96 182.06L204.46 181.59L202.93 181.18L201.38 180.83L199.81 180.54L198.22 180.31L196.61 180.15L194.98 180.05L193.33 180.01L191.68 180.05L190.05 180.15Z" id="b1uiEl74v8"></path><path d="M518.78 233.57L521.47 233.84L524.12 234.22L526.74 234.7L529.33 235.28L531.87 235.97L534.38 236.75L536.84 237.62L539.25 238.59L541.62 239.65L543.94 240.79L546.21 242.03L548.42 243.34L550.58 244.74L552.67 246.22L554.71 247.78L556.69 249.41L558.6 251.11L560.44 252.89L562.22 254.73L563.92 256.64L565.56 258.62L567.11 260.66L568.59 262.76L569.99 264.91L571.3 267.13L572.54 269.39L573.68 271.71L574.74 274.08L575.71 276.5L576.58 278.96L577.36 281.46L578.05 284L578.63 286.59L579.11 289.21L579.49 291.86L579.77 294.55L579.93 297.26L579.99 300.01L579.93 302.75L579.77 305.47L579.49 308.16L579.11 310.81L578.63 313.43L578.04 316.01L577.36 318.56L576.58 321.06L575.71 323.52L574.74 325.94L573.68 328.31L572.53 330.62L571.3 332.89L569.98 335.1L568.58 337.26L567.1 339.36L565.55 341.4L563.92 343.37L562.21 345.29L560.43 347.13L558.59 348.91L556.68 350.61L554.7 352.24L552.66 353.8L550.56 355.28L548.41 356.67L546.19 357.99L543.93 359.22L541.61 360.37L539.24 361.43L536.83 362.4L534.37 363.27L531.86 364.05L529.32 364.73L526.74 365.32L524.12 365.8L521.47 366.18L518.78 366.45L516.07 366.62L513.32 366.67L510.58 366.62L507.86 366.45L505.18 366.18L502.53 365.8L499.91 365.32L497.33 364.73L494.78 364.05L492.28 363.27L489.82 362.4L487.4 361.43L485.04 360.37L482.72 359.22L480.45 357.99L478.24 356.67L476.08 355.28L473.98 353.8L471.94 352.24L469.97 350.61L468.06 348.91L466.21 347.13L464.43 345.29L462.73 343.37L461.1 341.4L459.54 339.36L458.06 337.26L456.66 335.1L455.35 332.89L454.11 330.62L452.97 328.31L451.91 325.94L450.94 323.52L450.06 321.06L449.28 318.56L448.6 316.01L448.02 313.43L447.53 310.81L447.15 308.16L446.88 305.47L446.71 302.75L446.66 300.01L446.71 297.26L446.88 294.55L447.15 291.86L447.53 289.21L448.01 286.59L448.6 284L449.28 281.46L450.06 278.96L450.94 276.5L451.9 274.08L452.96 271.71L454.11 269.39L455.34 267.13L456.66 264.91L458.06 262.76L459.53 260.66L461.09 258.62L462.72 256.64L464.42 254.73L466.2 252.89L468.04 251.11L469.96 249.41L471.93 247.78L473.97 246.22L476.07 244.74L478.23 243.34L480.44 242.03L482.71 240.79L485.02 239.65L487.39 238.59L489.81 237.62L492.27 236.75L494.77 235.97L497.32 235.28L499.9 234.7L502.52 234.22L505.17 233.84L507.86 233.57L510.58 233.4L513.32 233.34L516.07 233.4L518.78 233.57ZM510.04 260.14L508.43 260.31L506.84 260.54L505.26 260.83L503.71 261.18L502.19 261.59L500.68 262.05L499.21 262.58L497.76 263.16L496.34 263.8L494.95 264.48L493.59 265.22L492.26 266.01L490.96 266.85L489.7 267.74L488.48 268.67L487.3 269.65L486.15 270.68L485.04 271.74L483.98 272.85L482.96 273.99L481.98 275.18L481.04 276.4L480.16 277.66L479.32 278.96L478.53 280.29L477.79 281.65L477.1 283.04L476.47 284.46L475.89 285.91L475.36 287.38L474.9 288.88L474.49 290.41L474.14 291.96L473.85 293.53L473.62 295.12L473.46 296.73L473.36 298.36L473.32 300.01L473.36 301.66L473.46 303.29L473.62 304.9L473.85 306.49L474.14 308.06L474.49 309.61L474.9 311.14L475.37 312.64L475.89 314.11L476.47 315.56L477.11 316.98L477.8 318.38L478.53 319.74L479.33 321.06L480.16 322.36L481.05 323.62L481.99 324.84L482.96 326.03L483.99 327.17L485.05 328.28L486.16 329.35L487.31 330.37L488.49 331.35L489.72 332.28L490.98 333.17L492.27 334.01L493.6 334.8L494.96 335.54L496.35 336.23L497.77 336.86L499.22 337.44L500.69 337.97L502.2 338.43L503.72 338.84L505.27 339.19L506.84 339.48L508.44 339.71L510.05 339.88L511.68 339.98L513.32 340.01L514.97 339.98L516.6 339.88L518.21 339.71L519.8 339.48L521.37 339.19L522.92 338.84L524.45 338.43L525.95 337.97L527.43 337.44L528.88 336.86L530.3 336.23L531.69 335.54L533.05 334.8L534.38 334.01L535.67 333.17L536.93 332.28L538.15 331.35L539.34 330.37L540.48 329.35L541.59 328.28L542.66 327.17L543.68 326.03L544.66 324.84L545.59 323.62L546.48 322.36L547.32 321.06L548.11 319.74L548.85 318.38L549.54 316.98L550.17 315.56L550.75 314.11L551.28 312.64L551.75 311.14L552.16 309.61L552.51 308.06L552.8 306.49L553.02 304.9L553.19 303.29L553.29 301.66L553.32 300.01L553.29 298.36L553.19 296.73L553.02 295.12L552.8 293.53L552.51 291.96L552.16 290.41L551.75 288.88L551.28 287.38L550.75 285.91L550.17 284.46L549.54 283.04L548.85 281.65L548.11 280.29L547.32 278.96L546.48 277.66L545.59 276.4L544.66 275.18L543.68 273.99L542.66 272.85L541.59 271.74L540.48 270.68L539.34 269.65L538.15 268.67L536.93 267.74L535.67 266.85L534.38 266.01L533.05 265.22L531.69 264.48L530.3 263.8L528.88 263.16L527.43 262.58L525.95 262.05L524.45 261.59L522.92 261.18L521.37 260.83L519.8 260.54L518.21 260.31L516.6 260.14L514.97 260.04L513.32 260.01L511.67 260.04L510.04 260.14Z" id="g36GI9KXRs"></path><path d="M352.45 20.23L364.98 20.96L377.39 22.19L389.67 23.91L401.81 26.1L413.79 28.76L425.62 31.88L437.27 35.45L448.74 39.45L460.01 43.88L471.09 48.73L481.95 53.98L492.59 59.62L503 65.66L513.17 72.06L523.08 78.83L532.74 85.96L542.12 93.43L551.22 101.24L560.02 109.37L568.53 117.81L576.73 126.55L584.6 135.59L592.14 144.91L599.34 154.51L606.19 164.36L612.68 174.47L618.79 184.82L624.53 195.4L629.87 206.21L634.81 217.22L639.34 228.43L643.45 239.84L647.13 251.42L650.36 263.18L653.15 275.09L655.47 287.16L657.33 299.36L658.7 311.69L659.58 324.14L659.96 336.7L659.98 338.57L659.99 340.54L660 342.6L659.99 344.74L659.97 346.97L659.93 349.27L659.86 351.65L659.76 354.09L659.63 356.61L659.45 359.18L659.24 361.81L658.98 364.49L658.66 367.22L658.29 370L657.86 372.82L657.36 375.67L656.8 378.55L656.15 381.47L655.43 384.4L654.63 387.36L653.74 390.33L652.76 393.32L651.68 396.31L650.5 399.3L649.22 402.29L647.82 405.28L646.31 408.26L644.69 411.22L642.94 414.17L641.06 417.09L639.05 419.99L636.9 422.86L634.62 425.69L632.19 428.49L629.61 431.24L626.87 433.95L623.98 436.6L620.92 439.2L617.7 441.74L614.31 444.22L609.59 447.41L604.86 450.38L600.12 453.14L595.37 455.68L590.6 458.02L585.83 460.16L581.06 462.11L576.27 463.87L571.49 465.46L566.7 466.86L561.92 468.1L557.14 469.18L552.36 470.1L547.58 470.88L542.82 471.5L538.06 471.99L533.31 472.35L528.57 472.59L523.85 472.7L519.14 472.7L514.45 472.59L509.77 472.38L505.12 472.07L500.49 471.67L495.88 471.19L491.3 470.63L486.74 470L482.21 469.31L477.71 468.55L473.24 467.74L468.8 466.89L464.4 465.99L460.04 465.06L455.71 464.09L451.42 463.11L447.18 462.1L442.97 461.09L438.81 460.07L434.7 459.05L430.63 458.03L428.88 457.6L427.14 457.16L425.4 456.73L423.67 456.3L421.94 455.87L420.22 455.44L418.5 455.02L416.79 454.61L415.09 454.2L413.39 453.79L411.7 453.4L410.02 453L408.35 452.62L406.68 452.24L405.02 451.87L403.37 451.51L401.72 451.16L400.09 450.82L398.46 450.49L396.85 450.16L395.24 449.85L393.64 449.55L392.05 449.27L390.47 448.99L388.9 448.73L387.34 448.48L385.79 448.24L384.25 448.02L382.72 447.82L381.2 447.63L379.69 447.45L378.2 447.29L376.71 447.15L375.24 447.03L373.78 446.92L372.33 446.83L370.89 446.76L369.47 446.71L368.06 446.68L366.66 446.67L365.56 446.7L364.48 446.76L363.4 446.87L362.34 447.02L361.3 447.22L360.26 447.45L359.25 447.72L358.25 448.03L357.26 448.38L356.3 448.77L355.35 449.19L354.42 449.65L353.51 450.14L352.63 450.67L351.77 451.23L350.93 451.82L350.11 452.44L349.32 453.09L348.56 453.78L347.82 454.49L347.11 455.22L346.43 455.99L345.77 456.78L345.15 457.59L344.56 458.43L344 459.3L343.47 460.18L342.98 461.09L342.52 462.02L342.1 462.96L341.71 463.93L341.36 464.91L341.05 465.92L340.77 466.93L340.54 467.97L340.34 469.02L340.19 470.08L340.08 471.15L340.02 472.24L339.99 473.34L340 473.45L340 473.56L340 473.67L340 473.79L340 473.9L340 474.01L340.01 474.12L340.01 474.23L340.01 474.34L340.02 474.45L340.02 474.56L340.03 474.67L340.04 474.78L340.04 474.89L340.05 475L340.06 475.11L340.06 475.22L340.07 475.33L340.08 475.44L340.09 475.55L340.1 475.65L340.11 475.76L340.12 475.87L340.13 475.98L340.14 476.09L340.15 476.2L340.16 476.31L340.17 476.42L340.18 476.52L340.2 476.63L340.21 476.74L340.22 476.85L340.24 476.96L340.25 477.06L340.26 477.17L340.28 477.28L340.29 477.39L340.31 477.5L340.33 477.6L340.34 477.71L340.51 479.49L340.69 481.22L340.9 482.9L341.13 484.53L341.37 486.12L341.64 487.66L341.93 489.17L342.24 490.64L342.57 492.07L342.92 493.46L343.29 494.83L343.68 496.17L344.09 497.47L344.53 498.76L344.98 500.02L345.46 501.25L345.95 502.47L346.47 503.67L347.01 504.86L347.57 506.03L348.15 507.19L348.76 508.35L349.38 509.49L350.03 510.63L350.7 511.77L351.39 512.91L352.1 514.05L352.83 515.19L353.59 516.34L354.37 517.5L355.17 518.67L355.99 519.84L356.84 521.04L357.7 522.24L358.59 523.47L359.51 524.72L360.44 525.99L361.4 527.28L362.38 528.6L363.38 529.95L363.76 530.46L364.14 530.98L364.53 531.5L364.92 532.02L365.31 532.54L365.7 533.07L366.1 533.6L366.49 534.14L366.89 534.68L367.29 535.22L367.7 535.77L368.1 536.33L368.51 536.88L368.92 537.44L369.33 538.01L369.75 538.58L370.17 539.15L370.59 539.73L371.01 540.32L371.43 540.9L371.86 541.5L372.28 542.1L372.71 542.7L373.14 543.31L373.58 543.92L374.02 544.54L374.45 545.17L374.89 545.8L375.34 546.43L375.78 547.07L376.23 547.72L376.68 548.37L377.13 549.03L377.58 549.7L378.04 550.37L378.49 551.04L378.95 551.73L379.41 552.42L379.87 553.11L380.34 553.82L380.35 553.83L380.36 553.84L380.36 553.84L380.38 553.85L380.39 553.87L380.39 553.87L380.41 553.89L380.41 553.9L380.42 553.9L380.43 553.92L380.44 553.93L380.45 553.95L380.46 553.96L380.47 553.97L380.47 553.98L380.48 553.98L380.49 554L380.49 554.01L380.5 554.02L380.51 554.04L380.52 554.05L380.53 554.07L380.54 554.08L380.55 554.09L380.55 554.1L380.55 554.11L381.17 554.97L381.78 555.85L382.37 556.73L382.94 557.61L383.5 558.51L384.04 559.41L384.57 560.32L385.09 561.23L385.59 562.15L386.07 563.08L386.54 564.02L386.99 564.96L387.43 565.91L387.86 566.86L388.26 567.82L388.66 568.79L389.03 569.76L389.39 570.73L389.74 571.72L390.07 572.7L390.39 573.7L390.68 574.69L390.97 575.7L391.23 576.7L391.49 577.71L391.72 578.73L391.94 579.75L392.15 580.77L392.33 581.8L392.51 582.83L392.66 583.87L392.8 584.91L392.92 585.95L393.03 587L393.12 588.05L393.19 589.1L393.25 590.15L393.29 591.21L393.32 592.27L393.33 593.34L393.28 595.86L393.14 598.37L392.91 600.84L392.59 603.29L392.18 605.72L391.68 608.11L391.1 610.47L390.43 612.79L389.69 615.09L388.86 617.34L387.96 619.56L386.98 621.73L385.92 623.86L384.8 625.95L383.6 628L382.33 629.99L380.99 631.94L379.59 633.84L378.12 635.69L376.59 637.48L375 639.21L373.34 640.89L371.63 642.51L369.87 644.07L368.05 645.57L366.17 647.01L364.25 648.37L362.27 649.68L360.25 650.91L358.18 652.07L356.07 653.16L353.91 654.18L351.72 655.12L349.48 655.98L347.21 656.76L344.9 657.47L342.55 658.09L340.18 658.62L337.77 659.08L335.33 659.44L335.24 659.47L335.14 659.49L335.05 659.51L334.96 659.54L334.86 659.56L334.77 659.58L334.67 659.6L334.57 659.62L334.48 659.64L334.38 659.66L334.28 659.68L334.19 659.7L334.09 659.71L333.99 659.73L333.89 659.74L333.79 659.76L333.69 659.77L333.6 659.79L333.5 659.8L333.4 659.81L333.3 659.82L333.2 659.83L333.1 659.84L333.01 659.85L332.91 659.86L332.81 659.87L332.71 659.87L332.62 659.88L332.52 659.89L332.42 659.89L332.33 659.9L332.23 659.9L332.14 659.91L332.04 659.91L331.95 659.91L331.85 659.92L331.76 659.92L331.67 659.92L331.58 659.92L331.49 659.92L331.47 659.92L331.45 659.92L331.44 659.92L331.42 659.92L331.4 659.92L331.38 659.92L331.36 659.92L331.35 659.92L331.33 659.92L331.31 659.92L331.28 659.91L331.26 659.91L331.24 659.91L331.21 659.91L331.19 659.91L331.16 659.91L331.11 659.9L331.07 659.9L331.06 659.9L331.02 659.9L331.01 659.9L330.97 659.9L330.95 659.9L330.94 659.9L330.92 659.9L330.9 659.9L330.88 659.89L330.87 659.89L330.85 659.89L330.83 659.89L330.81 659.89L330.8 659.89L330.69 659.9L330.59 659.9L330.49 659.91L330.39 659.91L330.28 659.91L330.18 659.92L330.08 659.92L329.98 659.92L329.87 659.93L329.77 659.93L329.67 659.94L329.56 659.94L329.46 659.94L329.36 659.95L329.26 659.95L329.15 659.95L329.05 659.96L328.95 659.96L328.84 659.96L328.74 659.97L328.63 659.97L328.53 659.97L328.43 659.97L328.32 659.98L328.22 659.98L328.12 659.98L328.01 659.98L327.91 659.99L327.8 659.99L327.7 659.99L327.6 659.99L327.49 659.99L327.39 660L327.29 660L327.18 660L327.08 660L326.97 660L326.87 660L326.77 660L326.66 660L326.58 660L326.49 660L326.4 660L326.32 659.99L326.23 659.99L326.15 659.99L326.06 659.99L325.98 659.98L325.89 659.98L325.81 659.97L325.72 659.96L325.64 659.96L325.55 659.95L325.47 659.94L325.38 659.94L325.3 659.93L325.22 659.92L325.13 659.91L325.05 659.9L324.96 659.89L324.88 659.88L324.8 659.86L324.71 659.85L324.63 659.84L324.55 659.83L324.47 659.81L324.38 659.8L324.3 659.78L324.22 659.77L324.14 659.75L324.06 659.74L323.97 659.72L323.89 659.7L323.81 659.69L323.73 659.67L323.65 659.65L323.57 659.63L323.49 659.61L323.41 659.59L323.33 659.57L310.59 658.68L298.01 657.31L285.59 655.47L273.34 653.17L261.27 650.41L249.38 647.21L237.69 643.58L226.21 639.53L214.94 635.06L203.89 630.18L193.08 624.91L182.5 619.25L172.18 613.21L162.11 606.8L152.31 600.02L142.79 592.9L133.55 585.43L124.6 577.63L115.96 569.51L107.63 561.07L99.62 552.32L91.93 543.28L84.59 533.95L77.59 524.34L70.95 514.45L64.67 504.31L58.77 493.92L53.25 483.28L48.11 472.41L43.38 461.32L39.06 450.01L35.15 438.49L31.68 426.77L28.63 414.87L26.03 402.79L23.89 390.54L22.2 378.12L20.99 365.56L20.25 352.85L20 340.01L20.07 333.44L20.26 326.89L20.59 320.36L21.04 313.87L21.62 307.4L22.33 300.96L23.17 294.55L24.13 288.17L25.22 281.82L26.43 275.52L27.77 269.24L29.23 263.01L30.82 256.81L32.53 250.66L34.36 244.54L36.31 238.47L38.38 232.45L40.58 226.47L42.89 220.54L45.32 214.65L47.87 208.82L50.54 203.04L53.33 197.31L56.23 191.64L59.25 186.02L62.39 180.46L65.64 174.96L69 169.52L72.48 164.14L76.07 158.83L79.78 153.58L83.59 148.39L87.52 143.28L91.56 138.23L95.71 133.25L99.96 128.34L104.33 123.51L108.81 118.75L113.39 114.06L118.08 109.46L122.86 104.95L127.71 100.55L132.63 96.26L137.62 92.08L142.68 88.02L147.81 84.06L153 80.22L158.26 76.49L163.58 72.88L168.96 69.38L174.41 66L179.91 62.73L185.47 59.57L191.08 56.54L196.75 53.62L202.48 50.82L208.25 48.13L214.08 45.57L219.96 43.12L225.88 40.79L231.86 38.59L237.87 36.5L243.94 34.54L250.04 32.7L256.19 30.98L262.37 29.38L268.6 27.91L274.86 26.56L281.16 25.33L287.49 24.23L293.86 23.26L300.26 22.41L306.69 21.69L313.15 21.09L319.64 20.63L326.15 20.29L332.69 20.08L339.25 20L345.84 20.05L352.45 20.23ZM328.47 46.9L322.79 47.17L317.13 47.55L311.5 48.03L305.88 48.62L300.29 49.31L294.72 50.11L289.18 51.02L283.67 52.03L278.18 53.14L272.73 54.36L267.3 55.68L261.91 57.1L256.55 58.62L251.23 60.25L245.93 61.98L240.68 63.81L235.46 65.74L230.28 67.76L225.15 69.89L220.05 72.12L214.99 74.45L209.98 76.87L205.01 79.4L200.09 82.02L195.21 84.73L190.38 87.55L185.6 90.46L180.87 93.46L176.19 96.56L171.56 99.76L166.99 103.05L162.47 106.43L158.01 109.91L153.6 113.48L149.25 117.14L144.96 120.9L140.73 124.74L136.56 128.68L132.26 132.9L128.06 137.2L123.96 141.56L119.96 145.99L116.05 150.49L112.25 155.05L108.55 159.68L104.95 164.37L101.45 169.12L98.06 173.93L94.77 178.8L91.58 183.73L88.49 188.72L85.52 193.76L82.64 198.86L79.88 204L77.21 209.2L74.66 214.45L72.21 219.75L69.88 225.1L67.65 230.49L65.53 235.93L63.52 241.41L61.62 246.93L59.83 252.49L58.15 258.1L56.58 263.74L55.13 269.42L53.79 275.14L52.56 280.89L51.45 286.67L50.45 292.49L49.57 298.33L48.8 304.21L48.15 310.11L47.62 316.04L47.21 322L46.91 327.98L46.73 333.98L46.67 340.01L46.9 351.92L47.59 363.7L48.73 375.35L50.31 386.85L52.33 398.21L54.76 409.4L57.62 420.43L60.88 431.28L64.54 441.94L68.59 452.41L73.03 462.67L77.84 472.73L83.01 482.56L88.54 492.16L94.42 501.53L100.64 510.65L107.2 519.51L114.07 528.11L121.27 536.44L128.76 544.49L136.56 552.25L144.65 559.71L153.02 566.86L161.66 573.7L170.57 580.22L179.73 586.4L189.14 592.24L198.79 597.73L208.67 602.86L218.78 607.63L229.1 612.01L239.62 616.02L250.35 619.63L261.26 622.84L272.35 625.64L283.62 628.02L295.05 629.97L306.63 631.49L318.36 632.56L330.24 633.18L331.75 633.01L333.26 632.79L334.74 632.51L336.21 632.18L337.65 631.8L339.07 631.36L340.47 630.87L341.85 630.34L343.2 629.75L344.52 629.12L345.82 628.44L347.09 627.71L348.33 626.94L349.54 626.13L350.71 625.27L351.86 624.37L352.97 623.44L354.04 622.46L355.08 621.45L356.09 620.4L357.05 619.31L357.98 618.19L358.86 617.03L359.71 615.85L360.51 614.63L361.26 613.38L361.98 612.1L362.64 610.8L363.26 609.46L363.83 608.1L364.36 606.72L364.83 605.31L365.25 603.88L365.62 602.43L365.93 600.96L366.19 599.47L366.39 597.96L366.54 596.44L366.63 594.89L366.66 593.34L366.66 592.71L366.64 592.09L366.62 591.47L366.59 590.85L366.54 590.24L366.49 589.62L366.43 589.01L366.36 588.4L366.28 587.79L366.19 587.18L366.1 586.58L365.99 585.98L365.88 585.38L365.75 584.78L365.62 584.19L365.47 583.59L365.32 583L365.16 582.42L364.99 581.83L364.81 581.25L364.63 580.67L364.43 580.1L364.22 579.52L364.01 578.95L363.79 578.39L363.56 577.83L363.32 577.27L363.07 576.71L362.81 576.16L362.54 575.61L362.27 575.06L361.98 574.52L361.69 573.98L361.39 573.45L361.08 572.92L360.76 572.39L360.44 571.87L360.1 571.35L359.76 570.83L359.41 570.32L359.38 570.3L359.36 570.27L359.34 570.25L359.32 570.22L359.3 570.19L359.28 570.17L359.26 570.14L359.23 570.11L359.21 570.09L359.19 570.06L359.17 570.03L359.15 570L359.13 569.98L359.11 569.95L359.09 569.92L359.07 569.9L359.05 569.87L359.02 569.84L359 569.81L358.98 569.78L358.96 569.76L358.94 569.73L358.92 569.7L358.9 569.67L358.88 569.64L358.86 569.61L358.84 569.59L358.82 569.56L358.8 569.53L358.78 569.5L358.76 569.47L358.74 569.44L358.72 569.41L358.7 569.38L358.68 569.35L358.66 569.32L358.64 569.29L358.62 569.26L358.6 569.23L358.58 569.2L358.13 568.51L357.67 567.83L357.22 567.15L356.77 566.48L356.33 565.82L355.88 565.16L355.44 564.51L355 563.86L354.56 563.22L354.12 562.59L353.69 561.96L353.25 561.34L352.82 560.72L352.4 560.11L351.97 559.51L351.55 558.91L351.12 558.31L350.7 557.72L350.29 557.14L349.87 556.56L349.46 555.98L349.05 555.41L348.64 554.85L348.23 554.29L347.83 553.73L347.42 553.18L347.02 552.63L346.62 552.09L346.23 551.55L345.83 551.02L345.44 550.49L345.05 549.96L344.67 549.44L344.28 548.92L343.9 548.4L343.52 547.89L343.14 547.38L342.77 546.87L342.39 546.37L342.02 545.87L340.96 544.44L339.91 543.03L338.87 541.62L337.84 540.23L336.83 538.84L335.83 537.46L334.85 536.08L333.88 534.71L332.92 533.33L331.99 531.96L331.07 530.58L330.16 529.2L329.27 527.81L328.41 526.41L327.56 525L326.72 523.58L325.91 522.14L325.12 520.69L324.35 519.22L323.6 517.73L322.88 516.22L322.17 514.69L321.49 513.13L320.84 511.55L320.2 509.93L319.59 508.29L319.01 506.61L318.45 504.9L317.92 503.16L317.42 501.37L316.94 499.55L316.49 497.69L316.07 495.78L315.68 493.83L315.32 491.83L314.98 489.78L314.68 487.69L314.41 485.54L314.17 483.33L313.97 481.07L313.99 481.07L313.96 480.84L313.92 480.61L313.88 480.38L313.85 480.15L313.81 479.93L313.78 479.71L313.75 479.5L313.72 479.28L313.69 479.07L313.67 478.86L313.64 478.66L313.62 478.45L313.59 478.25L313.57 478.05L313.55 477.85L313.53 477.66L313.51 477.47L313.49 477.27L313.48 477.08L313.46 476.9L313.45 476.71L313.43 476.52L313.42 476.34L313.41 476.16L313.4 475.98L313.39 475.8L313.38 475.62L313.37 475.44L313.36 475.26L313.36 475.08L313.35 474.91L313.35 474.73L313.34 474.56L313.34 474.38L313.33 474.21L313.33 474.03L313.33 473.86L313.33 473.69L313.33 473.51L313.33 473.34L313.37 471.14L313.51 468.97L313.72 466.82L314.03 464.7L314.41 462.6L314.88 460.54L315.43 458.5L316.05 456.5L316.75 454.53L317.53 452.6L318.37 450.7L319.29 448.85L320.28 447.03L321.33 445.26L322.45 443.54L323.63 441.86L324.87 440.23L326.18 438.65L327.54 437.12L328.96 435.64L330.44 434.22L331.97 432.86L333.55 431.55L335.18 430.31L336.86 429.13L338.59 428.01L340.36 426.95L342.17 425.97L344.02 425.05L345.92 424.2L347.85 423.43L349.82 422.73L351.82 422.11L353.86 421.56L355.92 421.09L358.02 420.71L360.14 420.4L362.29 420.18L364.46 420.05L366.66 420.01L368.3 420.02L369.95 420.05L371.61 420.1L373.27 420.18L374.94 420.27L376.62 420.39L378.3 420.52L379.99 420.67L381.68 420.84L383.38 421.03L385.09 421.23L386.8 421.45L388.52 421.69L390.24 421.94L391.97 422.21L393.71 422.49L395.45 422.78L397.2 423.09L398.96 423.41L400.72 423.75L402.49 424.09L404.26 424.45L406.04 424.81L407.82 425.19L409.61 425.58L411.41 425.97L413.21 426.38L415.02 426.79L416.83 427.21L418.65 427.63L420.47 428.07L422.3 428.51L424.14 428.95L425.98 429.4L427.83 429.85L429.68 430.31L431.53 430.77L433.4 431.23L435.26 431.7L437.14 432.17L441.16 433.18L445.19 434.19L449.23 435.19L453.27 436.17L457.32 437.14L461.37 438.09L465.42 439.01L469.48 439.89L473.55 440.74L477.61 441.55L481.68 442.31L485.75 443.01L489.83 443.67L493.9 444.26L497.98 444.78L502.05 445.24L506.13 445.61L510.21 445.91L514.28 446.13L518.36 446.25L522.43 446.28L526.5 446.21L530.57 446.03L534.64 445.75L538.7 445.35L542.76 444.83L546.82 444.19L550.87 443.42L554.92 442.52L558.96 441.48L563 440.29L567.03 438.96L571.05 437.48L575.07 435.84L579.08 434.04L583.08 432.07L587.07 429.93L591.06 427.61L595.03 425.12L599 422.43L601.55 420.57L603.98 418.64L606.28 416.67L608.46 414.65L610.51 412.59L612.45 410.49L614.28 408.35L616 406.17L617.62 403.97L619.13 401.73L620.54 399.47L621.86 397.19L623.08 394.88L624.22 392.57L625.27 390.24L626.23 387.9L627.12 385.55L627.93 383.2L628.67 380.85L629.34 378.5L629.94 376.16L630.48 373.83L630.97 371.51L631.39 369.21L631.77 366.92L632.09 364.66L632.37 362.42L632.6 360.21L632.8 358.03L632.96 355.88L633.09 353.78L633.19 351.71L633.26 349.68L633.31 347.71L633.34 345.78L633.35 343.9L633.36 342.08L633.35 340.33L633.34 338.63L633.32 337L632.97 325.49L632.16 314.07L630.91 302.77L629.21 291.59L627.08 280.53L624.52 269.61L621.56 258.83L618.18 248.21L614.42 237.76L610.26 227.48L605.73 217.39L600.84 207.49L595.58 197.79L589.97 188.3L584.03 179.04L577.75 170L571.15 161.21L564.24 152.66L557.02 144.38L549.51 136.36L541.71 128.62L533.64 121.17L525.3 114.02L516.7 107.17L507.85 100.64L498.76 94.43L489.44 88.56L479.9 83.03L470.15 77.86L460.2 73.04L450.05 68.6L439.71 64.54L429.2 60.87L418.52 57.6L407.68 54.75L396.7 52.31L385.58 50.29L374.32 48.72L362.95 47.59L351.46 46.93L351.17 46.91L350.88 46.9L350.59 46.89L350.3 46.88L350 46.87L349.71 46.86L349.42 46.85L349.13 46.84L348.84 46.83L348.55 46.82L348.26 46.81L347.97 46.8L347.68 46.79L347.39 46.79L347.1 46.78L346.81 46.77L346.52 46.76L346.23 46.76L345.94 46.75L345.66 46.75L345.37 46.74L345.08 46.73L344.79 46.73L344.5 46.72L344.21 46.72L343.92 46.71L343.63 46.71L343.35 46.71L343.06 46.7L342.77 46.7L342.48 46.7L342.19 46.69L341.9 46.69L341.62 46.69L341.33 46.69L341.04 46.69L340.75 46.69L340.46 46.69L340.18 46.69L339.89 46.69L334.17 46.74L328.47 46.9Z" id="aHSYxWCtO"></path><path d="M172.13 340.23L174.81 340.5L177.47 340.88L180.09 341.37L182.67 341.95L185.22 342.63L187.72 343.41L190.18 344.29L192.6 345.25L194.96 346.31L197.28 347.46L199.55 348.69L201.76 350.01L203.92 351.41L206.02 352.88L208.06 354.44L210.03 356.07L211.94 357.78L213.79 359.55L215.56 361.4L217.27 363.31L218.9 365.28L220.45 367.32L221.93 369.42L223.33 371.58L224.65 373.79L225.88 376.06L227.03 378.38L228.09 380.74L229.05 383.16L229.93 385.62L230.71 388.12L231.39 390.67L231.97 393.25L232.46 395.87L232.84 398.53L233.11 401.21L233.27 403.93L233.33 406.67L233.27 409.42L233.11 412.13L232.84 414.82L232.46 417.48L231.97 420.1L231.39 422.68L230.71 425.22L229.92 427.73L229.05 430.19L228.08 432.6L227.02 434.97L225.88 437.29L224.64 439.56L223.33 441.77L221.93 443.93L220.45 446.02L218.89 448.06L217.26 450.04L215.55 451.95L213.78 453.79L211.93 455.57L210.02 457.27L208.04 458.91L206.01 460.46L203.91 461.94L201.75 463.34L199.54 464.66L197.27 465.89L194.95 467.03L192.58 468.09L190.17 469.06L187.71 469.93L185.21 470.71L182.66 471.4L180.08 471.98L177.46 472.46L174.81 472.84L172.12 473.12L169.41 473.28L166.67 473.34L163.92 473.28L161.2 473.12L158.52 472.84L155.86 472.46L153.24 471.98L150.66 471.4L148.12 470.71L145.61 469.93L143.15 469.06L140.74 468.09L138.37 467.03L136.05 465.89L133.78 464.66L131.57 463.34L129.41 461.94L127.32 460.46L125.28 458.91L123.3 457.28L121.39 455.57L119.54 453.8L117.77 451.95L116.06 450.04L114.43 448.06L112.88 446.03L111.4 443.93L110 441.77L108.68 439.56L107.45 437.29L106.31 434.97L105.25 432.6L104.28 430.19L103.4 427.73L102.62 425.22L101.94 422.68L101.36 420.1L100.88 417.48L100.5 414.82L100.22 412.13L100.06 409.42L100 406.67L100.06 403.93L100.22 401.21L100.5 398.53L100.88 395.87L101.36 393.25L101.94 390.67L102.62 388.12L103.4 385.62L104.28 383.16L105.25 380.74L106.31 378.38L107.45 376.06L108.68 373.79L110 371.58L111.4 369.42L112.88 367.32L114.43 365.28L116.06 363.31L117.77 361.4L119.54 359.55L121.39 357.78L123.3 356.07L125.28 354.44L127.31 352.88L129.41 351.41L131.57 350.01L133.78 348.69L136.05 347.46L138.37 346.31L140.74 345.25L143.15 344.29L145.61 343.41L148.12 342.63L150.66 341.95L153.24 341.37L155.86 340.88L158.52 340.5L161.2 340.23L163.92 340.06L166.67 340.01L169.41 340.06L172.13 340.23ZM163.39 366.81L161.77 366.97L160.18 367.2L158.61 367.49L157.06 367.84L155.53 368.25L154.03 368.72L152.55 369.24L151.1 369.82L149.68 370.46L148.29 371.15L146.93 371.89L145.6 372.68L144.31 373.52L143.05 374.4L141.83 375.34L140.64 376.32L139.49 377.34L138.39 378.4L137.32 379.51L136.3 380.66L135.32 381.84L134.39 383.07L133.5 384.33L132.66 385.62L131.87 386.95L131.13 388.31L130.45 389.7L129.81 391.12L129.23 392.57L128.71 394.05L128.24 395.55L127.83 397.07L127.48 398.62L127.19 400.19L126.96 401.79L126.8 403.4L126.7 405.03L126.67 406.67L126.7 408.32L126.8 409.95L126.96 411.56L127.19 413.15L127.48 414.72L127.83 416.27L128.24 417.8L128.71 419.3L129.23 420.78L129.81 422.23L130.45 423.65L131.13 425.04L131.87 426.4L132.66 427.73L133.5 429.02L134.39 430.28L135.32 431.5L136.3 432.69L137.32 433.84L138.39 434.94L139.49 436.01L140.64 437.03L141.83 438.01L143.05 438.94L144.31 439.83L145.6 440.67L146.93 441.46L148.29 442.2L149.68 442.89L151.1 443.52L152.55 444.1L154.03 444.63L155.53 445.1L157.06 445.51L158.61 445.86L160.18 446.15L161.77 446.38L163.39 446.54L165.02 446.64L166.67 446.67L168.31 446.64L169.95 446.54L171.56 446.38L173.15 446.15L174.72 445.86L176.27 445.51L177.8 445.1L179.3 444.63L180.78 444.1L182.23 443.52L183.65 442.89L185.04 442.2L186.4 441.46L187.73 440.67L189.02 439.83L190.28 438.94L191.51 438.01L192.69 437.03L193.84 436.01L194.95 434.94L196.01 433.84L197.03 432.69L198.01 431.5L198.94 430.28L199.83 429.02L200.67 427.73L201.46 426.4L202.2 425.04L202.89 423.65L203.52 422.23L204.1 420.78L204.62 419.3L205.09 417.8L205.5 416.27L205.85 414.72L206.14 413.15L206.37 411.56L206.53 409.95L206.63 408.32L206.67 406.67L206.63 405.03L206.53 403.4L206.37 401.79L206.14 400.19L205.85 398.62L205.5 397.07L205.09 395.55L204.62 394.05L204.1 392.57L203.52 391.12L202.88 389.7L202.19 388.31L201.45 386.95L200.66 385.62L199.82 384.33L198.94 383.07L198 381.84L197.02 380.66L196 379.51L194.94 378.4L193.83 377.34L192.68 376.32L191.5 375.34L190.27 374.4L189.01 373.52L187.72 372.68L186.39 371.89L185.03 371.15L183.64 370.46L182.22 369.82L180.77 369.24L179.29 368.72L177.79 368.25L176.27 367.84L174.72 367.49L173.15 367.2L171.55 366.97L169.94 366.81L168.31 366.71L166.67 366.67L165.02 366.71L163.39 366.81Z" id="cbu5fiToC"></path><path d="M385.45 100.24L388.14 100.51L390.79 100.89L393.41 101.37L396 101.96L398.54 102.64L401.05 103.42L403.51 104.29L405.92 105.26L408.29 106.32L410.61 107.47L412.88 108.7L415.09 110.01L417.25 111.41L419.34 112.89L421.38 114.45L423.36 116.08L425.27 117.78L427.11 119.56L428.89 121.4L430.59 123.31L432.23 125.29L433.78 127.33L435.26 129.43L436.66 131.58L437.98 133.8L439.21 136.06L440.35 138.38L441.41 140.75L442.38 143.17L443.25 145.63L444.03 148.13L444.72 150.67L445.3 153.26L445.78 155.88L446.16 158.53L446.44 161.22L446.6 163.94L446.66 166.68L446.6 169.43L446.44 172.14L446.16 174.83L445.78 177.48L445.3 180.1L444.72 182.69L444.03 185.23L443.25 187.73L442.38 190.19L441.41 192.61L440.35 194.98L439.2 197.3L437.97 199.56L436.65 201.78L435.25 203.93L433.77 206.03L432.22 208.07L430.59 210.05L428.88 211.96L427.1 213.8L425.26 215.58L423.35 217.28L421.37 218.91L419.33 220.47L417.23 221.95L415.08 223.35L412.86 224.66L410.6 225.9L408.28 227.04L405.91 228.1L403.5 229.07L401.04 229.94L398.53 230.72L395.99 231.4L393.41 231.99L390.79 232.47L388.14 232.85L385.45 233.12L382.74 233.29L379.99 233.34L377.25 233.29L374.53 233.12L371.84 232.85L369.19 232.47L366.57 231.99L363.99 231.4L361.44 230.72L358.94 229.94L356.48 229.07L354.06 228.1L351.7 227.04L349.38 225.9L347.11 224.66L344.9 223.35L342.74 221.95L340.64 220.47L338.6 218.91L336.63 217.28L334.72 215.58L332.87 213.8L331.1 211.96L329.39 210.05L327.76 208.07L326.2 206.03L324.73 203.93L323.33 201.78L322.01 199.56L320.78 197.3L319.63 194.98L318.57 192.61L317.61 190.19L316.73 187.73L315.95 185.23L315.27 182.69L314.68 180.1L314.2 177.48L313.82 174.83L313.55 172.14L313.38 169.43L313.33 166.68L313.38 163.94L313.55 161.22L313.82 158.53L314.2 155.88L314.68 153.26L315.27 150.68L315.95 148.13L316.73 145.63L317.61 143.17L318.57 140.75L319.63 138.38L320.78 136.06L322.01 133.8L323.33 131.59L324.73 129.43L326.2 127.33L327.76 125.29L329.39 123.31L331.09 121.4L332.87 119.56L334.72 117.78L336.63 116.08L338.6 114.45L340.64 112.89L342.74 111.41L344.9 110.02L347.11 108.7L349.38 107.47L351.69 106.32L354.06 105.26L356.48 104.29L358.94 103.42L361.44 102.64L363.99 101.96L366.57 101.37L369.19 100.89L371.84 100.51L374.53 100.24L377.25 100.07L379.99 100.02L382.74 100.07L385.45 100.24ZM376.71 126.81L375.1 126.98L373.51 127.21L371.93 127.5L370.38 127.85L368.86 128.26L367.35 128.72L365.88 129.25L364.43 129.83L363.01 130.47L361.62 131.15L360.26 131.89L358.93 132.68L357.63 133.52L356.37 134.41L355.15 135.34L353.97 136.32L352.82 137.35L351.71 138.41L350.65 139.52L349.63 140.66L348.65 141.85L347.71 143.07L346.83 144.33L345.99 145.63L345.2 146.96L344.46 148.32L343.77 149.71L343.14 151.13L342.56 152.58L342.03 154.05L341.57 155.55L341.16 157.08L340.81 158.63L340.52 160.2L340.29 161.79L340.13 163.41L340.03 165.03L339.99 166.68L340.03 168.33L340.13 169.96L340.29 171.57L340.52 173.16L340.81 174.73L341.16 176.28L341.57 177.81L342.03 179.31L342.56 180.78L343.14 182.23L343.77 183.65L344.46 185.05L345.2 186.41L345.99 187.73L346.83 189.03L347.71 190.29L348.65 191.51L349.63 192.7L350.65 193.84L351.71 194.95L352.82 196.02L353.97 197.04L355.15 198.02L356.37 198.95L357.63 199.84L358.93 200.68L360.26 201.47L361.62 202.21L363.01 202.9L364.43 203.53L365.88 204.11L367.35 204.64L368.86 205.1L370.38 205.51L371.93 205.87L373.51 206.15L375.1 206.38L376.71 206.55L378.34 206.65L379.99 206.68L381.64 206.65L383.27 206.55L384.88 206.38L386.48 206.15L388.05 205.87L389.6 205.51L391.13 205.1L392.63 204.64L394.11 204.11L395.56 203.53L396.98 202.9L398.37 202.21L399.73 201.47L401.06 200.68L402.35 199.84L403.61 198.95L404.83 198.02L406.02 197.04L407.17 196.02L408.27 194.95L409.34 193.84L410.36 192.7L411.34 191.51L412.27 190.29L413.16 189.03L414 187.73L414.79 186.41L415.52 185.05L416.21 183.65L416.85 182.23L417.43 180.78L417.95 179.31L418.42 177.81L418.83 176.28L419.18 174.73L419.47 173.16L419.69 171.57L419.86 169.96L419.96 168.33L419.99 166.68L419.96 165.03L419.86 163.41L419.69 161.79L419.47 160.2L419.18 158.63L418.83 157.08L418.42 155.55L417.95 154.05L417.42 152.58L416.84 151.13L416.21 149.71L415.52 148.32L414.78 146.96L413.99 145.63L413.15 144.33L412.26 143.07L411.33 141.85L410.35 140.66L409.33 139.52L408.26 138.41L407.15 137.35L406.01 136.32L404.82 135.34L403.6 134.41L402.34 133.52L401.05 132.68L399.72 131.89L398.36 131.15L396.97 130.47L395.55 129.83L394.1 129.25L392.62 128.72L391.12 128.26L389.59 127.85L388.04 127.5L386.47 127.21L384.88 126.98L383.27 126.81L381.64 126.72L379.99 126.68L378.34 126.72L376.71 126.81Z" id="ajtLbUIw9"></path><path d="M233.33 220.01C233.33 242.09 215.41 260.01 193.33 260.01C171.26 260.01 153.33 242.09 153.33 220.01C153.33 197.93 171.26 180.01 193.33 180.01C215.41 180.01 233.33 197.93 233.33 220.01Z" id="dsjWLeKzT"></path><path d="M419.99 166.68C419.99 188.76 402.07 206.68 379.99 206.68C357.92 206.68 339.99 188.76 339.99 166.68C339.99 144.6 357.92 126.68 379.99 126.68C402.07 126.68 419.99 144.6 419.99 166.68Z" id="iC8Qvevvc"></path><path d="M206.67 406.67C206.67 428.75 188.74 446.67 166.67 446.67C144.59 446.67 126.67 428.75 126.67 406.67C126.67 384.6 144.59 366.67 166.67 366.67C188.74 366.67 206.67 384.6 206.67 406.67Z" id="a4C8V8W08"></path><path d="M553.32 300.01C553.32 322.09 535.4 340.01 513.32 340.01C491.25 340.01 473.32 322.09 473.32 300.01C473.32 277.93 491.25 260.01 513.32 260.01C535.4 260.01 553.32 277.93 553.32 300.01Z" id="c5p1kUjudC"></path></defs><g><g><g><use xlink:href="#a20oSHYlG7" opacity="1" fill="#ffffff" fill-opacity="1"></use></g><g><use xlink:href="#a9UniiR4p" opacity="1" fill="#e7eced" fill-opacity="1"></use><g><use xlink:href="#a9UniiR4p" opacity="1" fill-opacity="0" stroke="#000000" stroke-width="1" stroke-opacity="1"></use></g></g><g><use xlink:href="#b1uiEl74v8" opacity="1" fill="#000000" fill-opacity="1"></use><g><use xlink:href="#b1uiEl74v8" opacity="1" fill-opacity="0" stroke="#000000" stroke-width="1" stroke-opacity="0"></use></g></g><g><use xlink:href="#g36GI9KXRs" opacity="1" fill="#000000" fill-opacity="1"></use><g><use xlink:href="#g36GI9KXRs" opacity="1" fill-opacity="0" stroke="#000000" stroke-width="1" stroke-opacity="0"></use></g></g><g><use xlink:href="#aHSYxWCtO" opacity="1" fill="#000000" fill-opacity="1"></use><g><use xlink:href="#aHSYxWCtO" opacity="1" fill-opacity="0" stroke="#000000" stroke-width="1" stroke-opacity="0"></use></g></g><g><use xlink:href="#cbu5fiToC" opacity="1" fill="#000000" fill-opacity="1"></use><g><use xlink:href="#cbu5fiToC" opacity="1" fill-opacity="0" stroke="#000000" stroke-width="1" stroke-opacity="0"></use></g></g><g><use xlink:href="#ajtLbUIw9" opacity="1" fill="#000000" fill-opacity="1"></use><g><use xlink:href="#ajtLbUIw9" opacity="1" fill-opacity="0" stroke="#000000" stroke-width="1" stroke-opacity="0"></use></g></g><g><use xlink:href="#dsjWLeKzT" opacity="1" fill="#31b89a" fill-opacity="1"></use></g><g><use xlink:href="#iC8Qvevvc" opacity="1" fill="#55607f" fill-opacity="1"></use></g><g><use xlink:href="#a4C8V8W08" opacity="1" fill="#55607f" fill-opacity="1"></use></g><g><use xlink:href="#c5p1kUjudC" opacity="1" fill="#eab931" fill-opacity="1"></use></g></g></g></svg>