<?xml version="1.0" encoding="iso-8859-1"?>
<!-- Generator: Adobe Illustrator 19.0.0, SVG Export Plug-In . SVG Version: 6.00 Build 0)  -->
<svg version="1.1" id="Capa_1" xmlns="http://www.w3.org/2000/svg" xmlns:xlink="http://www.w3.org/1999/xlink" x="0px" y="0px"
	 viewBox="0 0 512.015 512.015" style="enable-background:new 0 0 512.015 512.015;" xml:space="preserve">
<g>
	<g>
		<path d="M511.981,253.369C510.637,118.863,400.28,5.284,265.965,0.185C195.373-2.439,129.048,22.884,78.466,71.567
			C27.864,120.292,0.002,185.785,0.002,256.015c0,137.664,106.048,248.725,242.667,255.659c0.853,0.213,1.749,0.341,2.667,0.341
			c1.109,0,2.219-0.043,3.307-0.085c0.192,0,0.363,0.021,0.555,0.021c0.96,0,2.091-0.107,3.072-0.384
			c26.155-3.413,46.4-25.813,46.4-52.885c0-11.349-3.541-22.208-10.219-31.381c-0.043-0.085-0.107-0.171-0.171-0.235
			c-4.971-7.531-9.515-13.653-13.568-19.093c-10.816-14.549-16.768-22.549-18.432-41.792c-0.171-1.152-0.277-2.304-0.277-3.499
			c0-11.776,9.579-21.333,21.333-21.333c14.848,0,32.491,4.416,51.179,9.088c43.115,10.752,96.725,24.213,146.944-11.051
			C512.6,313.316,512.173,272.825,511.981,253.369z M463.213,321.956c-42.261,29.632-86.613,18.581-129.493,7.787
			c-20.011-4.992-38.891-9.728-56.384-9.728c-23.531,0-42.667,19.136-42.667,42.667c0,1.856,0.107,3.669,0.533,6.187h-0.021
			c2.027,24.405,11.051,36.523,22.443,51.84c3.947,5.312,8.384,11.264,13.248,18.667c0.213,0.32,0.427,0.619,0.661,0.896
			c3.797,5.419,5.803,11.755,5.803,18.411c0,16.683-12.843,30.421-29.141,31.872c-127.339-4.139-226.859-106.88-226.859-234.539
			c0-64.384,25.536-124.416,71.915-169.067c44.139-42.496,101.589-65.6,162.667-65.6c3.072,0,6.144,0.064,9.259,0.192
			c123.093,4.672,224.256,108.779,225.493,232.064C490.84,270.649,491.16,302.329,463.213,321.956z"/>
	</g>
</g>
<g>
	<g>
		<path d="M394.669,170.681c-29.419,0-53.333,23.915-53.333,53.333s23.936,53.333,53.333,53.333s53.333-23.915,53.333-53.333
			S424.088,170.681,394.669,170.681z M394.669,256.015c-17.643,0-32-14.357-32-32s14.336-32,32-32c17.643,0,32,14.357,32,32
			S412.312,256.015,394.669,256.015z"/>
	</g>
</g>
<g>
	<g>
		<path d="M288.002,64.015c-29.419,0-53.333,23.915-53.333,53.333c0,29.419,23.915,53.333,53.333,53.333
			c29.397,0,53.333-23.915,53.333-53.333C341.336,87.929,317.421,64.015,288.002,64.015z M288.002,149.348
			c-17.664,0-32-14.357-32-32c0-17.643,14.336-32,32-32c17.643,0,32,14.357,32,32C320.002,134.991,305.666,149.348,288.002,149.348z
			"/>
	</g>
</g>
<g>
	<g>
		<path d="M138.669,106.681c-29.419,0-53.333,23.915-53.333,53.333s23.915,53.333,53.333,53.333
			c29.397,0,53.333-23.915,53.333-53.333S168.088,106.681,138.669,106.681z M138.669,192.015c-17.664,0-32-14.357-32-32
			s14.336-32,32-32c17.643,0,32,14.357,32,32S156.333,192.015,138.669,192.015z"/>
	</g>
</g>
<g>
	<g>
		<path d="M117.336,256.015c-29.419,0-53.333,23.915-53.333,53.333c0,29.419,23.915,53.333,53.333,53.333
			c29.397,0,53.333-23.915,53.333-53.333C170.669,279.929,146.754,256.015,117.336,256.015z M117.336,341.348
			c-17.664,0-32-14.357-32-32c0-17.643,14.336-32,32-32c17.643,0,32,14.357,32,32C149.336,326.991,135,341.348,117.336,341.348z"/>
	</g>
</g>
<g>
</g>
<g>
</g>
<g>
</g>
<g>
</g>
<g>
</g>
<g>
</g>
<g>
</g>
<g>
</g>
<g>
</g>
<g>
</g>
<g>
</g>
<g>
</g>
<g>
</g>
<g>
</g>
<g>
</g>
</svg>
