<?xml version="1.0" encoding="UTF-8" standalone="no"?>
<!DOCTYPE svg PUBLIC "-//W3C//DTD SVG 1.1//EN" "http://www.w3.org/Graphics/SVG/1.1/DTD/svg11.dtd">
<svg version="1.1" xmlns="http://www.w3.org/2000/svg" xmlns:xlink="http://www.w3.org/1999/xlink" preserveAspectRatio="xMidYMid meet" viewBox="0 0 680 680" width="680" height="680"><defs><path d="M0 0L680 0L680 680L0 680L0 0Z" id="a9ZLXF7W0"></path><path d="M32.75 236.16L32.75 45.8L486.38 50.12L486.38 236.16L397.09 236.16L397.09 138.09L319.33 145.31L319.33 539.01L404.29 539.01L410.05 628.43L110.52 632.75L110.52 539.01L202.68 533.24L198.36 138.09L123.48 138.09L123.48 236.16L32.75 236.16Z" id="b1lBPNEcr"></path><path d="M486.38 408.12L450.14 396.52L435.46 370.43L403.77 242.9L548.7 289.27L566.09 328.41L600.87 366.09L521.16 444.35L486.38 408.12Z" id="hoe6gMO6N"></path><path d="M541.45 486.38L647.25 382.03L616.81 354.49L511.01 457.39L541.45 486.38Z" id="a1mVNGAgNr"></path><path d="M399.73 127.34L400.18 127.39L400.64 127.46L401.08 127.54L401.52 127.64L401.96 127.75L402.38 127.89L402.8 128.03L403.21 128.2L403.62 128.38L404.01 128.57L404.4 128.78L404.78 129.01L405.14 129.25L405.5 129.5L405.85 129.76L406.18 130.04L406.51 130.33L406.82 130.63L407.13 130.95L407.42 131.27L407.69 131.61L407.96 131.96L408.21 132.31L408.45 132.68L408.67 133.06L408.88 133.44L409.08 133.84L409.26 134.24L409.42 134.65L409.57 135.07L409.7 135.5L409.82 135.93L409.92 136.37L410 136.82L410.06 137.27L410.11 137.73L410.14 138.19L410.15 138.66L410.15 231.67L531.05 267.19L532.7 267.71L534.34 268.28L535.97 268.89L537.58 269.56L539.18 270.27L540.76 271.04L542.31 271.84L543.85 272.7L545.37 273.59L546.87 274.53L548.34 275.51L549.79 276.53L551.22 277.59L552.62 278.68L553.99 279.81L555.33 280.98L556.65 282.18L557.93 283.41L559.18 284.68L560.4 285.97L561.58 287.3L562.73 288.65L563.84 290.02L564.91 291.43L565.95 292.86L566.95 294.31L567.9 295.78L568.82 297.27L569.69 298.78L570.52 300.32L571.3 301.86L572.04 303.43L572.72 305L573.36 306.59L573.96 308.2L574.5 309.81L574.98 311.44L575.42 313.07L575.8 314.71L576.13 316.35L576.23 316.88L576.34 317.4L576.46 317.93L576.59 318.46L576.74 318.99L576.89 319.52L577.06 320.06L577.23 320.59L577.42 321.12L577.61 321.66L577.82 322.19L578.03 322.72L578.26 323.26L578.5 323.79L578.74 324.32L578.99 324.85L579.26 325.39L579.53 325.92L579.81 326.44L580.11 326.97L580.41 327.5L580.72 328.02L581.03 328.54L581.36 329.06L581.7 329.58L582.04 330.09L582.39 330.6L582.75 331.11L583.12 331.62L583.5 332.12L583.89 332.62L584.28 333.11L584.68 333.6L585.09 334.09L585.51 334.57L585.93 335.05L586.36 335.52L586.8 335.99L587.25 336.46L587.7 336.92L602.17 351.39L610.75 342.82L610.91 342.66L611.08 342.5L611.24 342.35L611.41 342.2L611.58 342.06L611.76 341.92L611.94 341.78L612.11 341.65L612.3 341.52L612.48 341.4L612.67 341.28L612.86 341.16L613.05 341.04L613.24 340.93L613.43 340.83L613.63 340.72L613.83 340.63L614.03 340.53L614.23 340.44L614.44 340.35L614.64 340.27L614.85 340.19L615.06 340.12L615.27 340.05L615.48 339.98L615.69 339.92L615.9 339.86L616.12 339.8L616.34 339.75L616.55 339.71L616.77 339.67L616.99 339.63L617.21 339.6L617.44 339.57L617.66 339.54L617.88 339.52L618.11 339.51L618.33 339.5L618.55 339.49L618.78 339.49L619.01 339.49L619.23 339.5L619.46 339.51L619.68 339.52L619.9 339.54L620.13 339.57L620.35 339.6L620.57 339.63L620.79 339.67L621.01 339.71L621.22 339.75L621.44 339.8L621.66 339.86L621.87 339.92L622.08 339.98L622.3 340.05L622.51 340.12L622.71 340.19L622.92 340.27L623.13 340.35L623.33 340.44L623.53 340.53L623.73 340.63L623.93 340.72L624.13 340.83L624.32 340.93L624.52 341.04L624.71 341.16L624.89 341.28L625.08 341.4L625.26 341.52L625.45 341.65L625.63 341.78L625.8 341.92L625.98 342.06L626.15 342.2L626.32 342.35L626.49 342.5L626.65 342.66L626.81 342.82L656.68 372.68L656.83 372.84L656.99 373L657.14 373.17L657.29 373.34L657.43 373.51L657.57 373.69L657.71 373.86L657.84 374.04L657.97 374.23L658.09 374.41L658.21 374.6L658.33 374.78L658.45 374.97L658.56 375.17L658.66 375.36L658.77 375.56L658.86 375.76L658.96 375.96L659.05 376.16L659.14 376.36L659.22 376.57L659.3 376.78L659.37 376.98L659.44 377.19L659.51 377.41L659.57 377.62L659.63 377.83L659.68 378.05L659.73 378.27L659.78 378.48L659.82 378.7L659.86 378.92L659.89 379.14L659.92 379.36L659.95 379.59L659.97 379.81L659.98 380.03L659.99 380.26L660 380.48L660 380.71L660 380.93L659.99 381.16L659.98 381.38L659.97 381.61L659.95 381.83L659.92 382.05L659.89 382.28L659.86 382.5L659.82 382.72L659.78 382.93L659.73 383.15L659.68 383.37L659.63 383.58L659.57 383.8L659.51 384.01L659.44 384.22L659.37 384.43L659.3 384.64L659.22 384.85L659.14 385.05L659.05 385.26L658.96 385.46L658.86 385.66L658.77 385.86L658.66 386.06L658.56 386.25L658.45 386.44L658.33 386.63L658.21 386.82L658.09 387.01L657.97 387.19L657.84 387.37L657.71 387.55L657.57 387.73L657.43 387.9L657.29 388.08L657.14 388.25L656.99 388.41L656.83 388.58L656.68 388.74L547.36 498.05L547.2 498.21L547.04 498.36L546.87 498.51L546.7 498.66L546.53 498.8L546.36 498.94L546.18 499.08L546 499.21L545.82 499.34L545.63 499.47L545.45 499.59L545.26 499.71L545.07 499.82L544.88 499.93L544.68 500.04L544.48 500.14L544.29 500.24L544.09 500.33L543.88 500.42L543.68 500.51L543.47 500.59L543.27 500.67L543.06 500.75L542.85 500.82L542.64 500.88L542.42 500.95L542.21 501.01L541.99 501.06L541.78 501.11L541.56 501.16L541.34 501.2L541.12 501.23L540.9 501.27L540.68 501.3L540.46 501.32L540.23 501.34L540.01 501.36L539.78 501.37L539.56 501.37L539.33 501.38L539.11 501.37L538.88 501.37L538.66 501.36L538.43 501.34L538.21 501.32L537.99 501.3L537.77 501.27L537.55 501.23L537.33 501.2L537.11 501.16L536.89 501.11L536.67 501.06L536.46 501.01L536.24 500.95L536.03 500.88L535.82 500.82L535.61 500.75L535.4 500.67L535.19 500.59L534.99 500.51L534.78 500.42L534.58 500.33L534.38 500.24L534.18 500.14L533.99 500.04L533.79 499.93L533.6 499.82L533.41 499.71L533.22 499.59L533.03 499.47L532.85 499.34L532.67 499.21L532.49 499.08L532.31 498.94L532.14 498.8L531.97 498.66L531.8 498.51L531.63 498.36L531.47 498.21L531.3 498.05L501.44 468.18L501.12 467.85L500.81 467.5L500.52 467.14L500.24 466.78L499.99 466.4L499.74 466.02L499.52 465.63L499.31 465.24L499.12 464.84L498.95 464.43L498.79 464.02L498.65 463.6L498.52 463.18L498.41 462.75L498.32 462.32L498.25 461.89L498.19 461.46L498.15 461.03L498.12 460.59L498.11 460.16L498.12 459.72L498.15 459.28L498.19 458.85L498.25 458.42L498.32 457.99L498.41 457.56L498.52 457.13L498.65 456.71L498.79 456.3L498.95 455.88L499.12 455.48L499.31 455.07L499.52 454.68L499.74 454.29L499.99 453.91L500.24 453.53L500.52 453.17L500.81 452.81L501.12 452.47L501.44 452.13L510.02 443.55L495.54 429.07L495.08 428.62L494.62 428.17L494.15 427.74L493.68 427.3L493.2 426.88L492.71 426.46L492.23 426.05L491.74 425.65L491.24 425.26L490.74 424.87L490.24 424.5L489.74 424.13L489.23 423.77L488.72 423.41L488.2 423.07L487.68 422.73L487.17 422.41L486.64 422.09L486.12 421.78L485.6 421.48L485.07 421.19L484.54 420.91L484.01 420.63L483.48 420.37L482.95 420.11L482.41 419.87L481.88 419.63L481.35 419.41L480.81 419.19L480.28 418.99L479.75 418.79L479.21 418.61L478.68 418.43L478.15 418.27L477.62 418.11L477.09 417.97L476.56 417.84L476.03 417.71L475.5 417.6L474.98 417.5L473.33 417.18L471.69 416.79L470.06 416.36L468.44 415.87L466.82 415.33L465.22 414.74L463.63 414.1L462.05 413.41L460.49 412.68L458.94 411.89L457.41 411.07L455.9 410.19L454.4 409.28L452.93 408.32L451.48 407.33L450.05 406.29L448.65 405.22L447.27 404.1L445.92 402.96L444.6 401.77L443.3 400.56L442.04 399.3L440.8 398.02L439.6 396.71L438.44 395.37L437.31 394L436.21 392.6L435.15 391.17L434.13 389.72L433.15 388.25L432.22 386.75L431.32 385.23L430.47 383.69L429.66 382.13L428.9 380.55L428.18 378.96L427.52 377.35L426.9 375.72L426.33 374.08L425.82 372.42L387.96 243.58L387.96 243.56L387.94 243.49L387.93 243.48L387.9 243.38L387.9 243.36L387.89 243.35L387.89 243.33L387.89 243.32L387.89 243.31L387.88 243.3L387.88 243.29L387.88 243.28L387.88 243.26L387.88 243.26L387.87 243.23L387.86 243.2L387.85 243.17L387.84 243.14L387.83 243.11L387.83 243.08L387.82 243.05L387.81 243.02L387.8 242.99L387.8 242.96L387.79 242.93L387.78 242.9L387.77 242.87L387.77 242.84L387.76 242.81L387.75 242.78L387.75 242.75L387.74 242.72L387.73 242.69L387.73 242.66L387.72 242.63L387.71 242.6L387.71 242.57L387.7 242.54L387.69 242.51L387.69 242.48L387.68 242.45L387.67 242.41L387.67 242.38L387.66 242.35L387.66 242.32L387.65 242.29L387.65 242.26L387.64 242.23L387.63 242.2L387.63 242.17L387.62 242.14L387.62 242.11L387.61 242.08L387.61 242.05L387.61 242.04L387.6 242.02L387.6 241.98L387.6 241.97L387.59 241.94L387.59 241.92L387.58 241.88L387.58 241.86L387.57 241.83L387.57 241.81L387.56 241.77L387.56 241.75L387.56 241.72L387.55 241.7L387.55 241.65L387.54 241.63L387.54 241.6L387.54 241.57L387.53 241.55L387.53 241.52L387.53 241.49L387.52 241.46L387.52 241.44L387.52 241.41L387.52 241.38L387.51 241.36L387.51 241.33L387.51 241.3L387.5 241.27L387.5 241.25L387.5 241.22L387.5 241.19L387.49 241.16L387.49 241.14L387.49 241.11L387.49 241.08L387.49 241.05L387.48 241.03L387.48 241L387.48 240.97L387.48 240.94L387.48 240.92L387.47 240.89L387.47 240.86L387.47 240.83L387.47 240.81L387.47 240.78L387.47 240.75L387.47 240.72L387.46 240.7L387.46 240.67L387.46 240.64L387.46 240.61L387.46 240.58L387.46 240.57L387.46 240.55L387.46 240.54L387.46 240.51L387.46 240.5L387.45 240.47L387.45 240.42L387.45 240.38L387.45 240.36L387.45 240.33L387.45 240.32L387.45 240.31L387.45 240.29L387.45 240.29L387.45 240.27L387.44 240.25L387.44 240.24L387.44 240.22L387.44 240.2L387.44 240.18L387.44 240.17L387.44 150.02L330.45 150.02L330.45 529.98L413.89 529.98L414.36 529.99L414.82 530.02L415.28 530.07L415.73 530.13L416.18 530.21L416.62 530.31L417.06 530.43L417.48 530.56L417.9 530.71L418.31 530.88L418.72 531.06L419.11 531.25L419.5 531.46L419.87 531.68L420.24 531.92L420.6 532.17L420.95 532.44L421.28 532.72L421.61 533.01L421.92 533.31L422.22 533.62L422.51 533.95L422.79 534.28L423.06 534.63L423.31 534.99L423.55 535.36L423.77 535.73L423.98 536.12L424.18 536.51L424.36 536.92L424.52 537.33L424.67 537.75L424.8 538.18L424.92 538.61L425.02 539.05L425.1 539.5L425.16 539.95L425.21 540.41L425.24 540.87L425.25 541.34L425.25 633.62L425.24 634.09L425.21 634.55L425.16 635.01L425.1 635.46L425.02 635.91L424.92 636.35L424.8 636.78L424.67 637.21L424.52 637.63L424.36 638.04L424.18 638.44L423.98 638.84L423.77 639.22L423.55 639.6L423.31 639.97L423.06 640.32L422.79 640.67L422.51 641.01L422.22 641.33L421.92 641.65L421.61 641.95L421.28 642.24L420.95 642.52L420.6 642.78L420.24 643.03L419.87 643.27L419.5 643.5L419.11 643.71L418.72 643.9L418.31 644.08L417.9 644.25L417.48 644.39L417.06 644.53L416.62 644.64L416.18 644.74L415.73 644.82L415.28 644.89L414.82 644.94L414.36 644.96L413.89 644.97L222.28 644.97L221.81 644.96L221.35 644.94L220.89 644.89L220.44 644.82L219.99 644.74L219.55 644.64L219.12 644.53L218.69 644.39L218.27 644.25L217.86 644.08L217.46 643.9L217.06 643.71L216.68 643.5L216.3 643.27L215.93 643.03L215.57 642.78L215.23 642.52L214.89 642.24L214.57 641.95L214.25 641.65L213.95 641.33L213.66 641.01L213.38 640.67L213.12 640.32L212.86 639.97L212.63 639.6L212.4 639.22L212.19 638.84L212 638.44L211.82 638.04L211.65 637.63L211.5 637.21L211.37 636.78L211.26 636.35L211.16 635.91L211.07 635.46L211.01 635.01L210.96 634.55L210.94 634.09L210.93 633.62L210.94 633.15L210.96 632.69L211.01 632.23L211.07 631.78L211.16 631.33L211.26 630.89L211.37 630.46L211.5 630.03L211.65 629.61L211.82 629.2L212 628.79L212.19 628.4L212.4 628.01L212.63 627.64L212.86 627.27L213.12 626.91L213.38 626.56L213.66 626.23L213.95 625.9L214.25 625.59L214.57 625.29L214.89 625L215.23 624.72L215.57 624.45L215.93 624.2L216.3 623.96L216.68 623.74L217.06 623.53L217.46 623.34L217.86 623.16L218.27 622.99L218.69 622.84L219.12 622.71L219.55 622.59L219.99 622.49L220.44 622.41L220.89 622.35L221.35 622.3L221.81 622.27L222.28 622.26L402.54 622.26L402.54 552.69L319.1 552.69L318.63 552.68L318.16 552.65L317.71 552.61L317.25 552.54L316.81 552.46L316.37 552.36L315.93 552.25L315.51 552.11L315.09 551.96L314.68 551.8L314.27 551.62L313.88 551.42L313.49 551.21L313.11 550.99L312.75 550.75L312.39 550.5L312.04 550.24L311.71 549.96L311.38 549.67L311.07 549.37L310.76 549.05L310.47 548.73L310.2 548.39L309.93 548.04L309.68 547.69L309.44 547.32L309.22 546.94L309.01 546.55L308.81 546.16L308.63 545.76L308.47 545.35L308.32 544.93L308.19 544.5L308.07 544.07L307.97 543.63L307.89 543.18L307.83 542.73L307.78 542.27L307.75 541.8L307.74 541.34L307.74 138.66L307.75 138.19L307.78 137.73L307.83 137.27L307.89 136.82L307.97 136.37L308.07 135.93L308.19 135.5L308.32 135.07L308.47 134.65L308.63 134.24L308.81 133.84L309.01 133.44L309.22 133.06L309.44 132.68L309.68 132.31L309.93 131.96L310.2 131.61L310.47 131.27L310.76 130.95L311.07 130.63L311.38 130.33L311.71 130.04L312.04 129.76L312.39 129.5L312.75 129.25L313.11 129.01L313.49 128.78L313.88 128.57L314.27 128.38L314.68 128.2L315.09 128.03L315.51 127.89L315.93 127.75L316.37 127.64L316.81 127.54L317.25 127.46L317.71 127.39L318.16 127.34L318.63 127.32L319.1 127.31L398.79 127.31L399.26 127.32L399.73 127.34ZM539.33 473.96L632.59 380.71L618.78 366.9L525.53 460.16L539.33 473.96ZM484.12 308.99L484.43 308.85L484.74 308.72L485.05 308.59L485.37 308.47L485.68 308.35L486 308.23L486.31 308.12L486.63 308L486.95 307.9L487.27 307.79L487.59 307.69L487.92 307.59L488.24 307.5L488.57 307.41L488.89 307.32L489.22 307.23L489.55 307.15L489.88 307.08L490.21 307L490.54 306.93L490.87 306.86L491.21 306.8L491.54 306.74L491.88 306.68L492.21 306.63L492.55 306.58L492.89 306.54L493.23 306.49L493.57 306.45L493.91 306.42L494.25 306.39L494.59 306.36L494.94 306.34L495.28 306.32L495.62 306.3L495.97 306.29L496.31 306.28L496.66 306.27L497.01 306.27L497.65 306.27L498.29 306.29L498.93 306.32L499.56 306.37L500.2 306.42L500.83 306.49L501.46 306.57L502.08 306.66L502.7 306.77L503.32 306.89L503.94 307.01L504.55 307.15L505.16 307.31L505.76 307.47L506.36 307.65L506.96 307.83L507.55 308.03L508.14 308.24L508.72 308.46L509.3 308.7L509.88 308.94L510.45 309.2L511.01 309.46L511.57 309.74L512.12 310.03L512.67 310.33L513.22 310.64L513.75 310.97L514.29 311.3L514.81 311.65L515.33 312L515.84 312.37L516.35 312.74L516.85 313.13L517.35 313.53L517.83 313.94L518.31 314.36L518.79 314.78L519.25 315.22L519.71 315.67L520.16 316.13L520.6 316.6L521.03 317.07L521.45 317.55L521.86 318.04L522.25 318.53L522.64 319.03L523.02 319.54L523.38 320.05L523.74 320.57L524.08 321.1L524.42 321.63L524.74 322.17L525.05 322.71L525.35 323.26L525.64 323.82L525.92 324.37L526.19 324.94L526.44 325.51L526.69 326.08L526.92 326.66L527.14 327.25L527.35 327.83L527.55 328.43L527.74 329.02L527.92 329.62L528.08 330.23L528.23 330.84L528.37 331.45L528.5 332.06L528.62 332.68L528.72 333.31L528.81 333.93L528.89 334.56L528.96 335.19L529.02 335.82L529.06 336.46L529.09 337.1L529.11 337.74L529.12 338.38L529.11 339.02L529.09 339.66L529.06 340.3L529.02 340.93L528.96 341.57L528.89 342.2L528.81 342.82L528.72 343.45L528.62 344.07L528.5 344.69L528.37 345.31L528.23 345.92L528.08 346.53L527.92 347.13L527.74 347.73L527.55 348.33L527.35 348.92L527.14 349.51L526.92 350.09L526.69 350.67L526.44 351.25L526.19 351.82L525.92 352.38L525.64 352.94L525.35 353.49L525.05 354.04L524.74 354.59L524.42 355.12L524.08 355.66L523.74 356.18L523.38 356.7L523.02 357.21L522.64 357.72L522.25 358.22L521.86 358.72L521.45 359.2L521.03 359.68L520.6 360.16L520.16 360.62L519.71 361.08L519.25 361.53L518.79 361.97L518.31 362.4L517.83 362.82L517.35 363.23L516.85 363.62L516.35 364.01L515.85 364.39L515.33 364.75L514.81 365.11L514.29 365.45L513.75 365.79L513.22 366.11L512.67 366.42L512.12 366.72L511.57 367.01L511.01 367.29L510.45 367.56L509.88 367.81L509.3 368.06L508.72 368.29L508.14 368.51L507.55 368.72L506.96 368.92L506.36 369.11L505.76 369.29L505.16 369.45L504.55 369.6L503.94 369.74L503.32 369.87L502.7 369.99L502.08 370.09L501.46 370.18L500.83 370.26L500.2 370.33L499.56 370.39L498.93 370.43L498.29 370.46L497.65 370.48L497.01 370.49L496.37 370.48L495.73 370.46L495.09 370.43L494.45 370.39L493.82 370.33L493.19 370.26L492.56 370.18L491.93 370.09L491.31 369.99L490.69 369.87L490.08 369.74L489.47 369.6L488.86 369.45L488.25 369.29L487.65 369.11L487.06 368.92L486.46 368.72L485.88 368.51L485.29 368.29L484.71 368.06L484.14 367.81L483.57 367.56L483 367.29L482.44 367.01L481.89 366.72L481.34 366.42L480.8 366.11L480.26 365.79L479.73 365.45L479.2 365.11L478.68 364.75L478.17 364.39L477.66 364.01L477.16 363.62L476.67 363.23L476.18 362.82L475.7 362.4L475.23 361.97L474.76 361.53L474.3 361.08L473.85 360.62L473.41 360.16L472.98 359.68L472.57 359.2L472.16 358.72L471.76 358.22L471.37 357.72L471 357.21L470.63 356.7L470.28 356.18L469.93 355.66L469.6 355.12L469.27 354.59L468.96 354.04L468.66 353.49L468.37 352.94L468.09 352.38L467.83 351.82L467.57 351.25L467.33 350.67L467.09 350.09L466.87 349.51L466.66 348.92L466.46 348.33L466.27 347.73L466.1 347.13L465.94 346.53L465.78 345.92L465.64 345.31L465.51 344.69L465.4 344.07L465.29 343.45L465.2 342.82L465.12 342.2L465.05 341.57L465 340.93L464.95 340.3L464.92 339.66L464.9 339.02L464.9 338.38L464.9 338.03L464.91 337.68L464.91 337.34L464.93 336.99L464.94 336.65L464.97 336.31L464.99 335.96L465.02 335.62L465.05 335.28L465.08 334.94L465.12 334.6L465.16 334.26L465.21 333.92L465.26 333.58L465.31 333.25L465.37 332.91L465.43 332.58L465.49 332.24L465.56 331.91L465.63 331.58L465.71 331.25L465.78 330.92L465.86 330.59L465.95 330.26L466.04 329.94L466.13 329.61L466.22 329.29L466.32 328.96L466.42 328.64L466.53 328.32L466.63 328L466.75 327.68L466.86 327.37L466.98 327.05L467.1 326.74L467.22 326.42L467.35 326.11L467.48 325.8L467.62 325.49L467.75 325.18L422.24 279.66L447.61 366.02L447.93 367.06L448.29 368.09L448.69 369.12L449.11 370.15L449.58 371.16L450.07 372.17L450.59 373.16L451.14 374.15L451.73 375.12L452.34 376.09L452.97 377.04L453.64 377.98L454.33 378.9L455.04 379.81L455.77 380.7L456.53 381.57L457.31 382.43L458.11 383.26L458.93 384.08L459.77 384.88L460.63 385.65L461.5 386.41L462.39 387.14L463.3 387.84L464.21 388.52L465.15 389.18L466.09 389.81L467.04 390.41L468.01 390.98L468.98 391.52L469.96 392.04L470.95 392.52L471.95 392.97L472.95 393.39L473.96 393.77L474.97 394.12L475.98 394.44L477 394.71L478.01 394.96L479.03 395.16L479.9 395.32L480.77 395.51L481.64 395.7L482.5 395.91L483.37 396.14L484.24 396.39L485.1 396.64L485.96 396.92L486.82 397.21L487.68 397.51L488.54 397.83L489.4 398.16L490.25 398.51L491.1 398.87L491.95 399.25L492.79 399.64L493.63 400.04L494.47 400.46L495.3 400.9L496.13 401.34L496.96 401.8L497.78 402.28L498.59 402.77L499.41 403.27L500.21 403.78L501.02 404.31L501.81 404.85L502.6 405.4L503.39 405.97L504.17 406.55L504.94 407.14L505.71 407.74L506.47 408.36L507.23 408.99L507.98 409.63L508.72 410.28L509.45 410.95L510.18 411.63L510.89 412.31L511.6 413.02L526.08 427.49L586.12 367.45L571.65 352.97L570.94 352.26L570.26 351.55L569.58 350.82L568.91 350.09L568.26 349.35L567.62 348.6L566.99 347.84L566.37 347.08L565.77 346.32L565.18 345.54L564.6 344.76L564.03 343.98L563.48 343.18L562.94 342.39L562.41 341.58L561.9 340.78L561.39 339.97L560.91 339.15L560.43 338.33L559.97 337.5L559.53 336.67L559.09 335.84L558.67 335L558.27 334.16L557.88 333.32L557.5 332.47L557.14 331.62L556.79 330.77L556.46 329.91L556.14 329.05L555.84 328.2L555.55 327.33L555.27 326.47L555.01 325.61L554.77 324.74L554.54 323.87L554.33 323.01L554.13 322.14L553.95 321.27L553.79 320.4L553.58 319.38L553.34 318.37L553.06 317.35L552.75 316.34L552.4 315.33L552.02 314.32L551.6 313.32L551.15 312.33L550.67 311.34L550.15 310.35L549.61 309.38L549.04 308.41L548.43 307.46L547.81 306.52L547.15 305.59L546.47 304.67L545.76 303.76L545.03 302.87L544.28 302L543.51 301.14L542.71 300.3L541.89 299.48L541.05 298.68L540.2 297.9L539.32 297.14L538.43 296.41L537.53 295.7L536.6 295.01L535.67 294.34L534.72 293.71L533.75 293.1L532.78 292.51L531.79 291.96L530.79 291.44L529.79 290.95L528.77 290.49L527.75 290.06L526.72 289.66L525.69 289.3L524.65 288.98L438.3 263.61L483.81 309.12L484.12 308.99ZM495.65 329.08L494.99 329.19L494.35 329.36L493.72 329.57L493.1 329.82L492.51 330.12L491.93 330.46L491.38 330.84L490.86 331.27L490.36 331.73L489.9 332.23L489.47 332.76L489.09 333.31L488.75 333.88L488.45 334.48L488.2 335.09L487.99 335.72L487.82 336.37L487.7 337.03L487.63 337.7L487.61 338.38L487.63 339.06L487.7 339.73L487.82 340.39L487.99 341.04L488.2 341.67L488.45 342.28L488.75 342.88L489.09 343.45L489.47 344L489.9 344.53L490.36 345.03L490.86 345.49L491.38 345.91L491.93 346.3L492.51 346.64L493.1 346.93L493.72 347.19L494.35 347.4L494.99 347.56L495.65 347.68L496.33 347.75L497.01 347.78L497.69 347.75L498.36 347.68L499.02 347.56L499.67 347.4L500.3 347.19L500.91 346.93L501.51 346.64L502.08 346.3L502.63 345.91L503.15 345.49L503.65 345.03L504.12 344.53L504.54 344L504.92 343.45L505.27 342.88L505.56 342.28L505.82 341.67L506.03 341.04L506.19 340.39L506.31 339.73L506.38 339.06L506.41 338.38L506.38 337.7L506.31 337.03L506.19 336.37L506.03 335.72L505.82 335.09L505.56 334.48L505.27 333.88L504.92 333.31L504.54 332.76L504.12 332.23L503.65 331.73L503.15 331.27L502.63 330.84L502.08 330.46L501.5 330.12L500.91 329.82L500.3 329.57L499.66 329.36L499.02 329.19L498.36 329.08L497.69 329L497.01 328.98L496.33 329L495.65 329.08Z" id="e1xPw8B5vE"></path><path d="M31.35 35.03C25.08 35.03 20 40.11 20 46.38C20 65.76 20 220.79 20 240.17C20 246.44 25.08 251.52 31.35 251.52C40.58 251.52 114.41 251.52 123.63 251.52C129.91 251.52 134.99 246.44 134.99 240.17C134.99 234.16 134.99 204.11 134.99 150.02L192.82 150.02L192.82 529.98C142.25 529.98 114.15 529.98 108.53 529.98C102.26 529.98 97.18 535.07 97.18 541.34C97.18 550.57 97.18 624.39 97.18 633.62C97.18 639.89 102.26 644.97 108.53 644.97C114.16 644.97 159.13 644.97 164.75 644.97C171.02 644.97 176.11 639.89 176.11 633.62C176.11 627.35 171.02 622.26 164.75 622.26C161.76 622.26 146.81 622.26 119.89 622.26L119.89 552.69C170.46 552.69 198.55 552.69 204.17 552.69C210.44 552.69 215.52 547.61 215.52 541.34C215.52 501.07 215.52 178.93 215.52 138.66C215.52 132.39 210.44 127.31 204.17 127.31C196.11 127.31 131.69 127.31 123.63 127.31C117.36 127.31 112.28 132.39 112.28 138.66C112.28 144.67 112.28 174.72 112.28 228.81L42.71 228.81L42.71 57.74L479.72 57.74C479.72 78.29 479.72 89.7 479.72 91.99C479.72 98.26 484.8 103.34 491.08 103.34C497.35 103.34 502.43 98.26 502.43 91.99C502.43 87.43 502.43 50.94 502.43 46.38C502.43 40.11 497.35 35.03 491.08 35.03C399.13 35.03 77.33 35.03 31.35 35.03Z" id="a22Ol3L40S"></path></defs><g><g><g><use xlink:href="#a9ZLXF7W0" opacity="1" fill="#ffffff" fill-opacity="1"></use></g><g><use xlink:href="#b1lBPNEcr" opacity="1" fill="#e7eced" fill-opacity="1"></use><g><use xlink:href="#b1lBPNEcr" opacity="1" fill-opacity="0" stroke="#ffffff" stroke-width="1" stroke-opacity="1"></use></g></g><g><use xlink:href="#hoe6gMO6N" opacity="1" fill="#eab931" fill-opacity="1"></use><g><use xlink:href="#hoe6gMO6N" opacity="1" fill-opacity="0" stroke="#ffffff" stroke-width="1" stroke-opacity="1"></use></g></g><g><use xlink:href="#a1mVNGAgNr" opacity="1" fill="#55607f" fill-opacity="1"></use><g><use xlink:href="#a1mVNGAgNr" opacity="1" fill-opacity="0" stroke="#ffffff" stroke-width="1" stroke-opacity="1"></use></g></g><g><use xlink:href="#e1xPw8B5vE" opacity="1" fill="#000000" fill-opacity="1"></use><g><use xlink:href="#e1xPw8B5vE" opacity="1" fill-opacity="0" stroke="#000000" stroke-width="1" stroke-opacity="0"></use></g></g><g><use xlink:href="#a22Ol3L40S" opacity="1" fill="#000000" fill-opacity="1"></use><g><use xlink:href="#a22Ol3L40S" opacity="1" fill-opacity="0" stroke="#000000" stroke-width="1" stroke-opacity="0"></use></g></g></g></g></svg>