<?xml version="1.0" encoding="iso-8859-1"?>
<!-- Generator: Adobe Illustrator 19.0.0, SVG Export Plug-In . SVG Version: 6.00 Build 0)  -->
<svg version="1.1" id="Capa_1" xmlns="http://www.w3.org/2000/svg" xmlns:xlink="http://www.w3.org/1999/xlink" x="0px" y="0px"
	 viewBox="0 0 511.583 511.583" style="enable-background:new 0 0 511.583 511.583;" xml:space="preserve">
<g>
	<g>
		<path d="M334.31,220.679l-2.83,2.046l-56.23,28.126c-4.071,2.025-9.208,1.35-12.561-2.068c-3.309-3.265-4.136-8.338-2.046-12.539
			l28.104-56.23l2.046-2.83c65.003-64.981,144.613-144.613,144.613-144.613H10.885C4.876,32.571,0,37.448,0,43.456V500.61
			c0,6.008,4.876,10.885,10.885,10.885h424.5c6.008,0,10.885-4.876,10.885-10.885V108.72L424.5,130.489
			C424.5,130.489,334.31,220.679,334.31,220.679z M424.5,478.841c0,6.008-4.876,10.885-10.885,10.885H32.654
			c-6.008,0-10.885-4.876-10.885-10.885V65.225c0-6.008,4.876-10.885,10.885-10.885h318.027c6.008,0,10.885,4.876,10.885,10.885
			c0,6.03-4.876,10.885-10.885,10.885H43.538v391.846h359.192V230.367c0-5.987,4.876-10.885,10.885-10.885
			c6.008,0,10.885,4.898,10.885,10.885V478.841z M510.946,6.448c-2.438-5.899-9.753-8.904-14.999-3.635l-20.42,20.42l12.713,12.713
			l20.42-20.398C511.533,12.674,512.274,9.67,510.946,6.448z M307.469,191.313l-12.713,25.448l25.426-12.735L472.849,51.336
			l-12.713-12.713L307.469,191.313z"/>
	</g>
</g>
<g>
</g>
<g>
</g>
<g>
</g>
<g>
</g>
<g>
</g>
<g>
</g>
<g>
</g>
<g>
</g>
<g>
</g>
<g>
</g>
<g>
</g>
<g>
</g>
<g>
</g>
<g>
</g>
<g>
</g>
</svg>
